STARTFONT 2.3
FONT -FontForge-Bitstream Vera Sans Mono-Book-R-Normal-SansMono--14-100-100-100-P-79-FontSpecific-0
SIZE 10 100 100  8
FONTBOUNDINGBOX 10 16 -1 -4
COMMENT "Generated by fontforge, http://fontforge.sourceforge.net"
STARTPROPERTIES 29
FONT_NAME "BitstreamVeraSansMono-Roman"
FONT_ASCENT 11
FONT_DESCENT 3
UNDERLINE_POSITION -213
UNDERLINE_THICKNESS 141
QUAD_WIDTH 14
X_HEIGHT 10
CAP_HEIGHT 7
DEFAULT_CHAR -1
FONTNAME_REGISTRY ""
FAMILY_NAME "Bitstream Vera Sans Mono"
FOUNDRY "FontForge"
WEIGHT_NAME "Book"
SETWIDTH_NAME "Normal"
SLANT "R"
ADD_STYLE_NAME "SansMono-"
PIXEL_SIZE 14
POINT_SIZE 100
RESOLUTION_X 100
RESOLUTION_Y 100
RESOLUTION 100
SPACING "P"
AVERAGE_WIDTH 79
BITS_PER_PIXEL 8
CHARSET_REGISTRY "FontSpecific"
CHARSET_ENCODING "0"
CHARSET_COLLECTIONS "ASCII ISO8859-9 FontSpecific"
FULL_NAME "Bitstream Vera Sans Mono"
COPYRIGHT "Copyright (c) 2003 by Bitstream, Inc. All Rights Reserved."
ENDPROPERTIES
CHARS 269
STARTCHAR .null
ENCODING -1
SWIDTH 0 0
DWIDTH 0 0
BBX 1 1 0 0
BITMAP
00
ENDCHAR
STARTCHAR nonmarkingreturn
ENCODING -1
SWIDTH 602 0
DWIDTH 8 0
BBX 1 1 0 0
BITMAP
00
ENDCHAR
STARTCHAR space
ENCODING -1
SWIDTH 602 0
DWIDTH 8 0
BBX 1 1 0 0
BITMAP
00
ENDCHAR
STARTCHAR exclam
ENCODING -1
SWIDTH 602 0
DWIDTH 8 0
BBX 2 11 3 0
BITMAP
519F
78EC
78EC
78EC
78EC
72E5
64D4
3271
0000
62C0
78EC
ENDCHAR
STARTCHAR quotedbl
ENCODING -1
SWIDTH 602 0
DWIDTH 8 0
BBX 5 5 2 6
BITMAP
77560EAC16
B08014FF20
B08014FF20
B08014FF20
3526064C0A
ENDCHAR
STARTCHAR numbersign
ENCODING -1
SWIDTH 602 0
DWIDTH 8 0
BBX 9 11 0 0
BITMAP
0000004051005D3400
000000AA6E01E33500
000001E73221F40400
1D8C95FF90B0E88C39
1D8CBFD98CDABE8C39
00009C7D00D8410000
1010DA4D23FB1A0A00
FCFFFFFFFFFFFF9C00
085CC408968A080500
00948400D048000000
00D24710FB0E000000
ENDCHAR
STARTCHAR dollar
ENCODING -1
SWIDTH 602 0
DWIDTH 8 0
BBX 7 15 1 -3
BITMAP
00000011000000
000000AD000000
000F54D0511C00
2CEBA8DFB7E800
A0A900AC001100
ABA900AC000000
4DFEB4C8220000
003798F6FCAC09
000000B41EE773
000000B400B797
835511BB46F451
5BC6F6FFDD6900
000000B6000000
000000B3000000
0000001C000000
ENDCHAR
STARTCHAR percent
ENCODING -1
SWIDTH 602 0
DWIDTH 8 0
BBX 9 11 0 0
BITMAP
00123B0B0000000000
33E9CAE11E00000000
A75900798900000000
AE4D006E8D00000000
3DE6B1E5271578B501
001B4849A1B8550500
0960BE953A75791300
296A0D01C39396CF03
0000001ACF0000CE2C
0000000FE72220E714
000000005CECEC5F00
ENDCHAR
STARTCHAR ampersand
ENCODING -1
SWIDTH 602 0
DWIDTH 8 0
BBX 9 11 0 0
BITMAP
0000379AA676000000
0022F8976FA7000000
005DDD000000000000
003AF9170000000000
0006E6A80100000000
02AFB6EF6100004E10
50E60A55F42600EA2A
91A900009DCD0DF70C
84CA00000CDACDB900
28F67B06068EFF6100
003BC7F3E9AF91E715
ENDCHAR
STARTCHAR quotesingle
ENCODING -1
SWIDTH 602 0
DWIDTH 8 0
BBX 2 5 3 6
BITMAP
448A
64CC
64CC
64CC
1E3D
ENDCHAR
STARTCHAR parenleft
ENCODING -1
SWIDTH 602 0
DWIDTH 8 0
BBX 5 14 2 -2
BITMAP
0000032001
000069B800
0007E54300
0058E30200
00AC9C0000
00E7690000
0BFF4D0000
14FF450000
06FE520000
00DB740000
009AAD0000
0040F20900
0001CF5F00
000047B901
ENDCHAR
STARTCHAR parenright
ENCODING -1
SWIDTH 602 0
DWIDTH 8 0
BBX 4 14 2 -2
BITMAP
13110000
4ED20300
02D75800
007AC400
0031FF19
0005FB53
0000E375
0000DB7E
0000E870
000BFF48
0041FA0E
008EAE00
08EA3D00
5BAA0000
ENDCHAR
STARTCHAR asterisk
ENCODING -1
SWIDTH 602 0
DWIDTH 8 0
BBX 7 8 1 3
BITMAP
00001E69000000
2E042C9C002D05
6FC05DA688B817
001BD0FD5A0100
29B2A6C8C16303
732D2C9C088019
00002C9C000000
00000103000000
ENDCHAR
STARTCHAR plus
ENCODING -1
SWIDTH 602 0
DWIDTH 8 0
BBX 8 9 0 0
BITMAP
000000234B000000
0000005CC8000000
0000005CC8000000
1534347ED434342C
64FFFFFFFFFFFFD4
0204045FC9040404
0000005CC8000000
0000005CC8000000
0000001226000000
ENDCHAR
STARTCHAR comma
ENCODING -1
SWIDTH 602 0
DWIDTH 8 0
BBX 4 6 2 -3
BITMAP
00192C07
0090FF28
00A0F813
00DD9200
1EF91C00
030A0000
ENDCHAR
STARTCHAR hyphen
ENCODING -1
SWIDTH 602 0
DWIDTH 8 0
BBX 4 2 2 3
BITMAP
589C9C9C
54949494
ENDCHAR
STARTCHAR period
ENCODING -1
SWIDTH 602 0
DWIDTH 8 0
BBX 3 3 3 0
BITMAP
203003
A8FF10
A8FF10
ENDCHAR
STARTCHAR slash
ENCODING -1
SWIDTH 602 0
DWIDTH 8 0
BBX 8 13 0 -2
BITMAP
00000000000FAB27
000000000072D902
0000000004E16800
0000000057EC0A00
00000001C9830000
0000003BFA190000
000000AE9F000000
000023FD2D000000
000092BA00000000
0011F44800000000
0076D60100000000
05E4640000000000
1560080000000000
ENDCHAR
STARTCHAR zero
ENCODING -1
SWIDTH 602 0
DWIDTH 8 0
BBX 8 11 0 0
BITMAP
00002993A5630200
0026F2AE7FEE8B00
009CCE020059FB16
00E18100000CFE55
05FF5F102B00E976
0FFF55A1FD10DE82
08FF5A3E7501E47D
00EE72000003F963
00B6AC000036FF2C
004CFC5526C1C301
000070E9FAB91B00
ENDCHAR
STARTCHAR one
ENCODING -1
SWIDTH 602 0
DWIDTH 8 0
BBX 7 11 1 0
BITMAP
0F548FAC3E0000
50F6BFFF5C0000
0B0600FF5C0000
000000FF5C0000
000000FF5C0000
000000FF5C0000
000000FF5C0000
000000FF5C0000
000000FF5C0000
093838FF80381C
28FFFFFFFFFF7C
ENDCHAR
STARTCHAR two
ENCODING -1
SWIDTH 602 0
DWIDTH 8 0
BBX 7 12 1 -1
BITMAP
297EA79D500100
E0CD91A6FD8500
320000007FFA0C
000000004EFF1F
0000000088E703
00000028F66500
000013D9A10100
0009C3BD060000
03ADD00F000000
94E3220B0D0E04
F8FFFFFFFFFF38
27282828282809
ENDCHAR
STARTCHAR three
ENCODING -1
SWIDTH 602 0
DWIDTH 8 0
BBX 8 11 0 0
BITMAP
004286A79F5A0200
00AFAB8697F59800
000100000065FD0D
000000000051FF11
0000174963DF9A00
000045DDF3D02100
000000000591E60D
000000000010FF4C
000000000023FF4B
0EA04E2F48C9E80D
09AFE6FEF4B52800
ENDCHAR
STARTCHAR four
ENCODING -1
SWIDTH 602 0
DWIDTH 8 0
BBX 8 11 0 0
BITMAP
0000000047AC4600
0000000ADAFE6800
000000858AF86800
000027E30FF86800
0001BB6600F86800
0056D20300F86800
0DE4430000F86800
4CF9B8B8B8FED68D
2374747474FCAD59
0000000000F86800
0000000000F86800
ENDCHAR
STARTCHAR five
ENCODING -1
SWIDTH 602 0
DWIDTH 8 0
BBX 8 11 0 0
BITMAP
0064ACACACAC6400
0094D98888884F00
0094AC0000000000
0094AC110B000000
0094FCFFFFBB1D00
00463B204CE1CC01
000000000049FF2D
000000000020FF45
00000000004CFF27
0498462B52E1BB01
03C7F6FFEC9A1000
ENDCHAR
STARTCHAR six
ENCODING -1
SWIDTH 602 0
DWIDTH 8 0
BBX 8 11 0 0
BITMAP
00000F75A79C5100
0010D7DC8B91A500
0084DB0D00000000
00D76E0000000000
04FD6AD1FDD54A00
0FFFE84C1C8CF81E
09FF92000005F56B
01F272000000E082
00BF94000007F66A
005AF6532394F71C
000179E8FDD44600
ENDCHAR
STARTCHAR seven
ENCODING -1
SWIDTH 602 0
DWIDTH 8 0
BBX 8 11 0 0
BITMAP
09ACACACACACAC41
078C8C8C8CA9FF2C
000000000085CF00
0000000003E37200
0000000046FD1900
00000000A6B80000
00000010F75B0000
00000067F40B0000
000000C8A1000000
000029FF44000000
000088E503000000
ENDCHAR
STARTCHAR eight
ENCODING -1
SWIDTH 602 0
DWIDTH 8 0
BBX 8 11 0 0
BITMAP
00004D9CA87C1200
006CF88065CCD707
00CE9B00002CFF3D
00C29A00002AFF32
0041EB6B50C0A801
0010A4F4E9E54400
00B8BB0A015CFC2F
0EFF56000001EB7D
0DFF61000004F17C
00BDDA37208EFD2E
0017AAF3FCD24E00
ENDCHAR
STARTCHAR nine
ENCODING -1
SWIDTH 602 0
DWIDTH 8 0
BBX 8 11 0 0
BITMAP
000158A1A25B0100
0080F68680EE8500
06F477000052F80E
21FF41000013FF45
19FF4A00001EFF63
01DCA5010187FF6E
0043F3DCD6BDDE67
000011493E08F748
000000000055F70E
003A512F5EED8600
0044E0FEE5800300
ENDCHAR
STARTCHAR colon
ENCODING -1
SWIDTH 602 0
DWIDTH 8 0
BBX 3 8 3 0
BITMAP
679C0A
A8FF10
5F9009
000000
000000
203003
A8FF10
A8FF10
ENDCHAR
STARTCHAR semicolon
ENCODING -1
SWIDTH 602 0
DWIDTH 8 0
BBX 4 11 2 -3
BITMAP
00679C0A
00A8FF10
005F9009
00000000
00000000
00192C07
0090FF28
00A0F813
00DD9200
1EF91C00
030A0000
ENDCHAR
STARTCHAR less
ENCODING -1
SWIDTH 602 0
DWIDTH 8 0
BBX 8 8 0 1
BITMAP
000000000000000B
000000000138A3CD
00000B63CEF8A63E
1B8FF0D36F120000
64FF9F0F00000000
095FC9F59E390100
000000339CF6D565
00000000001170AD
ENDCHAR
STARTCHAR equal
ENCODING -1
SWIDTH 602 0
DWIDTH 8 0
BBX 8 5 0 2
BITMAP
42A8A8A8A8A8A88C
3990909090909078
0000000000000000
4BC0C0C0C0C0C09F
317C7C7C7C7C7C67
ENDCHAR
STARTCHAR greater
ENCODING -1
SWIDTH 602 0
DWIDTH 8 0
BBX 8 8 0 1
BITMAP
0B01000000000000
64D1660C00000000
157BDEF192290000
00000244A9F9BD4D
000000000151F0D4
00001573D8EE8D25
27AAFACA61090000
5B9E340000000000
ENDCHAR
STARTCHAR question
ENCODING -1
SWIDTH 602 0
DWIDTH 8 0
BBX 7 12 1 -1
BITMAP
014C99A8770B00
4DEA9690F1B500
1D0D000064FF0C
0000000074F205
00000040F76700
000027F37A0000
00008BC7010000
00009CAC000000
00002D33000000
0000717C000000
0000A8B8000000
00001B1D000000
ENDCHAR
STARTCHAR at
ENCODING -1
SWIDTH 602 0
DWIDTH 8 0
BBX 9 13 0 -3
BITMAP
000043BDF0E9910700
0059E6591528C28D00
13EB2C00000022EF01
6CA10029C8EE92F70B
A85A01D4852086FF0C
C33A23F4040005F70C
C5382AEE010001F20C
B05305E9530055FF0C
7996004CF3E7C9FB0C
1EEF22000D27030B01
0072DA310000010000
000167EAD7C3E00B00
000000053346250000
ENDCHAR
STARTCHAR A
ENCODING -1
SWIDTH 602 0
DWIDTH 8 0
BBX 9 11 0 0
BITMAP
0000007DAC19000000
000006F3F564000000
000044F491AF000000
00008FB547F4070000
0000DA700BF9450000
0025FF2B00BF900000
0070E601007BDB0000
00BBFDF0F0F6FF2600
0DFA78383838EC7100
51FF17000000A9BC00
9BD20000000063FA0D
ENDCHAR
STARTCHAR B
ENCODING -1
SWIDTH 602 0
DWIDTH 8 0
BBX 7 11 1 0
BITMAP
94ACACA87E1700
DCC28087D1E310
DC84000016FF59
DC84000011FF5D
DCAB5057B3E615
DCF7ECF3FA7601
DC84000138F363
DC84000000ACB8
DC84000000B3BA
DC9C303571FC6C
D6F8F8F5D57402
ENDCHAR
STARTCHAR C
ENCODING -1
SWIDTH 602 0
DWIDTH 8 0
BBX 8 11 0 0
BITMAP
0000035CA0A67813
0003B3EA897FCA58
0065F92700000110
00C3AC0000000000
00F37C0000000000
03FF6E0000000000
01FB750000000000
00D9980000000000
008FE60A00000000
0019EBB6372D794A
000027B4F5FBCC2E
ENDCHAR
STARTCHAR D
ENCODING -1
SWIDTH 602 0
DWIDTH 8 0
BBX 8 11 0 0
BITMAP
0BACACA67F230000
10FFB092CCFA5300
10FF54000196EF0D
10FF54000024FF54
10FF54000001F880
10FF54000000EA8E
10FF54000000F187
10FF54000011FF66
10FF54000061FE21
10FF703C77F39300
10FCFCF7D2700300
ENDCHAR
STARTCHAR E
ENCODING -1
SWIDTH 602 0
DWIDTH 8 0
BBX 7 11 1 0
BITMAP
71ACACACACAC46
A8E28C8C8C8C39
A8BC0000000000
A8BC0000000000
A8D14C4C4C4C10
A8FBECECECEC30
A8BC0000000000
A8BC0000000000
A8BC0000000000
A8CB383838381E
A8FFFFFFFFFF88
ENDCHAR
STARTCHAR F
ENCODING -1
SWIDTH 602 0
DWIDTH 8 0
BBX 7 11 1 0
BITMAP
46ACACACACAC69
68FF8C8C8C8C56
68FC0000000000
68FC0000000000
68FE505050500E
68FFE8E8E8E828
68FC0000000000
68FC0000000000
68FC0000000000
68FC0000000000
68FC0000000000
ENDCHAR
STARTCHAR G
ENCODING -1
SWIDTH 602 0
DWIDTH 8 0
BBX 8 11 0 0
BITMAP
00000F74A69D5402
0019DDD37E8AE534
00A5D70900000E14
0AF9700000000000
33FF400000000000
43FF320020808046
3CFF380029A4EB8C
18FF59000000C48C
00CCAB000000C48C
0043FD873041E38C
000049CCFBF3A91C
ENDCHAR
STARTCHAR H
ENCODING -1
SWIDTH 602 0
DWIDTH 8 0
BBX 8 11 0 0
BITMAP
0BAC390000009A56
10FF54000000E480
10FF54000000E480
10FF54000000E480
10FF884C4C4CED80
10FFF3ECECECFE80
10FF54000000E480
10FF54000000E480
10FF54000000E480
10FF54000000E480
10FF54000000E480
ENDCHAR
STARTCHAR I
ENCODING -1
SWIDTH 602 0
DWIDTH 8 0
BBX 7 11 1 0
BITMAP
6CACACACACAC09
588CC5F68C8C07
00007CE8000000
00007CE8000000
00007CE8000000
00007CE8000000
00007CE8000000
00007CE8000000
00007CE8000000
233899EE383803
A0FFFFFFFFFF0C
ENDCHAR
STARTCHAR J
ENCODING -1
SWIDTH 602 0
DWIDTH 8 0
BBX 7 11 0 0
BITMAP
000054ACACAC59
0000408484F184
0000000000E084
0000000000E084
0000000000E084
0000000000E084
0000000000E084
0000000000E283
0C02000004F56F
3FBE4E3086FF2D
1DAFEFFFE06700
ENDCHAR
STARTCHAR K
ENCODING -1
SWIDTH 602 0
DWIDTH 8 0
BBX 9 11 0 0
BITMAP
0BAC39000000739B0A
10FF5400006DF73C00
10FF540057FA4C0000
10FF5444F95F000000
10FF87F38700000000
10FFFFEACB04000000
10FFA224F774000000
10FF54007BF7240000
10FF540006D6BF0200
10FF5400003DFF6600
10FF540000009CF11C
ENDCHAR
STARTCHAR L
ENCODING -1
SWIDTH 602 0
DWIDTH 8 0
BBX 7 11 1 0
BITMAP
5C940000000000
88DC0000000000
88DC0000000000
88DC0000000000
88DC0000000000
88DC0000000000
88DC0000000000
88DC0000000000
88DC0000000000
88E4383838382C
88FFFFFFFFFFC8
ENDCHAR
STARTCHAR M
ENCODING -1
SWIDTH 602 0
DWIDTH 8 0
BBX 8 11 0 0
BITMAP
46AC5E000019AC8F
68F9D100006AF9D4
68DDD82500BDB4D4
68DC857815E777D4
68DC32CB649B74D4
68DC01DED14874D4
68DC008BF00674D4
68DC0012280074D4
68DC0000000074D4
68DC0000000074D4
68DC0000000074D4
ENDCHAR
STARTCHAR N
ENCODING -1
SWIDTH 602 0
DWIDTH 8 0
BBX 8 11 0 0
BITMAP
09AC900000009454
0CFFFF2A0000DC7C
0CFFE28D0000DC7C
0CFF80EB0700DC7C
0CFF49D35600DC7C
0CFF486FBA00DC7C
0CFF4812F620DC7C
0CFF4800A582DC7C
0CFF480041E4E07C
0CFF480001DBFF7C
0CFF48000077FF7C
ENDCHAR
STARTCHAR O
ENCODING -1
SWIDTH 602 0
DWIDTH 8 0
BBX 8 11 0 0
BITMAP
00003497A66B0500
003CFBA781E9A600
00BDB6000043FF2C
06FA6B000004F771
21FF4E000000DC92
2BFF45000000D29E
25FF49000000D799
0DFF5E000000EC7F
00D693000021FF48
006EF6512BB5D905
000285ECFBC12700
ENDCHAR
STARTCHAR P
ENCODING -1
SWIDTH 602 0
DWIDTH 8 0
BBX 7 11 1 0
BITMAP
6FACACAA8B2C00
A4E08489CFFA3B
A4BC000006DCAC
A4BC000000A9CA
A4BC000006DAAC
A4DE8084CBFC3E
A4EBB0AF913200
A4BC0000000000
A4BC0000000000
A4BC0000000000
A2BA0000000000
ENDCHAR
STARTCHAR Q
ENCODING -1
SWIDTH 602 0
DWIDTH 8 0
BBX 8 14 0 -3
BITMAP
00003397A6680400
0039FAB08FF29A00
00BAB9010059FF22
06FA6800000BFE67
24FF48000000E78B
33FF3D000000DB9A
31FF3F000000DD98
1EFF4E000000ED85
02F176000016FF5B
009FD70B007FF714
001BE0E8D1FD6500
00000C5589F64300
00000000007CC203
0000000000010400
ENDCHAR
STARTCHAR R
ENCODING -1
SWIDTH 602 0
DWIDTH 8 0
BBX 9 11 0 0
BITMAP
06ACACAC9F62050000
08FFB3859CF6B10100
08FF6000005DFF2A00
08FF6000002DFF4500
08FF60000071FB1900
08FFD3B8CBE25B0000
08FFAE81B6E3270000
08FF5C0001B9BC0000
08FF5C000034FF3C00
08FF5C000000BFB500
08FF5C0000004BFF30
ENDCHAR
STARTCHAR S
ENCODING -1
SWIDTH 602 0
DWIDTH 8 0
BBX 8 11 0 0
BITMAP
00003F97A98C4500
0067FA9F7CA3E100
01E7770000001200
02FF5A0000000000
00C6E2621D000000
001FB5FEFFD34C00
000000114FB4FD32
000000000003E77E
000300000001E27D
00C06D323395FD30
0081D5FBFACE4F00
ENDCHAR
STARTCHAR T
ENCODING -1
SWIDTH 602 0
DWIDTH 8 0
BBX 9 11 0 0
BITMAP
74ACACACACACACAC13
5F8C8CC3F78C8C8C10
00000078EC00000000
00000078EC00000000
00000078EC00000000
00000078EC00000000
00000078EC00000000
00000078EC00000000
00000078EC00000000
00000078EC00000000
00000078EC00000000
ENDCHAR
STARTCHAR U
ENCODING -1
SWIDTH 602 0
DWIDTH 8 0
BBX 8 11 0 0
BITMAP
08AC3C000006AC3C
0AFF58000008FF58
09FF58000008FF58
07FF58000008FF58
05FF58000008FF58
03FF58000008FF58
01FF58000008FF58
00FE59000009FF55
00E966000017FF42
00A0D84131A7EE0D
000E9FF2FCC73600
ENDCHAR
STARTCHAR V
ENCODING -1
SWIDTH 602 0
DWIDTH 8 0
BBX 9 11 0 0
BITMAP
599B0000000052A302
49FF1C000000B1B700
0AF85D000003EF6F00
00BA9F000032FF2700
0072E0000073DF0100
002AFF2100B4970000
0001E36204F14F0000
00009BA335FB0D0000
000054E476BF000000
000011FDD977000000
000000C4FF30000000
ENDCHAR
STARTCHAR W
ENCODING -1
SWIDTH 602 0
DWIDTH 8 0
BBX 9 11 0 0
BITMAP
A4420000000000A641
D67A000000000EFF41
B197000000002BFF1D
8CB40070B90448F702
68D100C5FA2D64D400
43EF04F2A66281B000
1EFF38D062979D8B00
02F889982BCCBA6700
00D5DA6003EBDE4300
00B0FF2800BCFF1E00
008BEF020084F90300
ENDCHAR
STARTCHAR X
ENCODING -1
SWIDTH 602 0
DWIDTH 8 0
BBX 9 11 0 0
BITMAP
24AC2E000000679502
01B8BA01001DF65E00
0028FB4800A4C20100
00008BD339FA2C0000
00000EE7EE8B000000
0000009FFF31000000
00002DFCCEB2000000
0001C2AB20F9470000
005EF71F008DD60500
10E97E000013F06E00
93DF0900000076EF14
ENDCHAR
STARTCHAR Y
ENCODING -1
SWIDTH 602 0
DWIDTH 8 0
BBX 9 11 0 0
BITMAP
62990200000055A307
22F957000009E58500
008CDB050075EA0E00
0011ED670FED680000
00006FE68BD7040000
000006DBFF4C000000
0000007FEB01000000
0000007CE800000000
0000007CE800000000
0000007CE800000000
0000007CE800000000
ENDCHAR
STARTCHAR Z
ENCODING -1
SWIDTH 602 0
DWIDTH 8 0
BBX 7 11 1 0
BITMAP
87ACACACACAC92
6E8C8C8C8DF3BD
0000000058FB2E
00000010E78500
00000096DA0900
000037FD400000
0004D09B000000
0073E811000000
1EF45500000000
B0D13938383838
F0FFFFFFFFFFFC
ENDCHAR
STARTCHAR bracketleft
ENCODING -1
SWIDTH 602 0
DWIDTH 8 0
BBX 4 14 3 -2
BITMAP
1B202002
D4F3E80F
D46C0000
D46C0000
D46C0000
D46C0000
D46C0000
D46C0000
D46C0000
D46C0000
D46C0000
D46C0000
D4781402
C7F0F00F
ENDCHAR
STARTCHAR backslash
ENCODING -1
SWIDTH 602 0
DWIDTH 8 0
BBX 8 13 0 -2
BITMAP
1AAC1A0000000000
00C7850000000000
0055EE0B00000000
0004DF6A00000000
000070DB02000000
00000EF14E000000
0000008CC1000000
0000001EFC340000
00000000A7A50000
0000000036FB1C00
0000000000C38900
000000000051F00D
0000000000035F1C
ENDCHAR
STARTCHAR bracketright
ENCODING -1
SWIDTH 602 0
DWIDTH 8 0
BBX 4 14 2 -2
BITMAP
15202009
95E8FF44
0000FF44
0000FF44
0000FF44
0000FF44
0000FF44
0000FF44
0000FF44
0000FF44
0000FF44
0000FF44
0D14FF44
9AF0F040
ENDCHAR
STARTCHAR asciicircum
ENCODING -1
SWIDTH 602 0
DWIDTH 8 0
BBX 8 5 0 6
BITMAP
00000071A7130000
000051F7CDB80300
0026EF5310D48400
0BD36D00001DE34E
1F44000000002242
ENDCHAR
STARTCHAR underscore
ENCODING -1
SWIDTH 602 0
DWIDTH 8 0
BBX 7 2 0 -4
BITMAP
1C1C1C1C1C1C1C
74747474747474
ENDCHAR
STARTCHAR grave
ENCODING -1
SWIDTH 602 0
DWIDTH 8 0
BBX 5 3 1 9
BITMAP
0292600000
0028E72C00
000047C807
ENDCHAR
STARTCHAR a
ENCODING -1
SWIDTH 602 0
DWIDTH 8 0
BBX 8 8 0 0
BITMAP
0042C8F6FAC73900
00556425228EEE0B
00000000000AFF36
001AA3E2F0F0FF40
00C7B32B0E13FF41
08FF37000034FF42
01E57F0112BDFF43
003ED7EEDC5FFF44
ENDCHAR
STARTCHAR b
ENCODING -1
SWIDTH 602 0
DWIDTH 8 0
BBX 7 11 1 0
BITMAP
A88E0000000000
B0940000000000
B0940000000000
B0A8BCFCDA4500
B0FF681780F416
B0C8000002E766
B09E000000BF8A
B09E000000BF89
B0C8000002E663
B0FE67167FF214
8F8BBBFDDA4300
ENDCHAR
STARTCHAR c
ENCODING -1
SWIDTH 602 0
DWIDTH 8 0
BBX 7 8 1 0
BITMAP
0024B1F3F9C222
10E6AA26186236
6CEC0800000000
9AB80000000000
98B90000000000
6AED0A00000000
10E4AE291B6232
0025B3F5FBC320
ENDCHAR
STARTCHAR d
ENCODING -1
SWIDTH 602 0
DWIDTH 8 0
BBX 8 11 0 0
BITMAP
000000000027F41B
000000000028FF1C
000000000027FF1C
000EA9F8E779FF1C
009CD1282DD9FF1C
06F653000061FF1C
1FFF29000037FF1C
1DFF29000037FF1C
04F453000062FF1C
0098D0272DD9FF1C
000EAAF9E670D017
ENDCHAR
STARTCHAR e
ENCODING -1
SWIDTH 602 0
DWIDTH 8 0
BBX 8 8 0 0
BITMAP
000172E0FDD54700
0074EC491668F722
03EB6C000000C77A
1EFFC5B0B0B0E69A
1EFF714C4C4C4C31
03ED640000000000
0077EA4C1429753C
000170DDFEEFB527
ENDCHAR
STARTCHAR f
ENCODING -1
SWIDTH 602 0
DWIDTH 8 0
BBX 7 12 1 0
BITMAP
000000021B2009
00001CDAFFFC43
000081CF0A0000
00009CA9000000
A8FFFFFFFFFF48
03049EAA040402
00009CA8000000
00009CA8000000
00009CA8000000
00009CA8000000
00009CA8000000
00009CA8000000
ENDCHAR
STARTCHAR g
ENCODING -1
SWIDTH 602 0
DWIDTH 8 0
BBX 8 12 0 -4
BITMAP
000CA7F1E085FF24
0097CE1009BAFF24
04F45C000047FF24
1CFF38000026FF24
1AFF3B00002CFF24
02EF69000057FF24
008FE1342ACDFF24
000AA5F9E56FFF21
000000000039FE0B
00243F040BABBC00
0039F1FBFDC71F00
0000021712000000
ENDCHAR
STARTCHAR h
ENCODING -1
SWIDTH 602 0
DWIDTH 8 0
BBX 7 12 1 0
BITMAP
15140000000000
A49C0000000000
A49C0000000000
A49C0000000000
A4A29FF7E85500
A4F66B279BEE05
A4C1000024FF26
A49E000015FF30
A49C000014FF30
A49C000014FF30
A49C000014FF30
A49C000014FF30
ENDCHAR
STARTCHAR i
ENCODING -1
SWIDTH 602 0
DWIDTH 8 0
BBX 7 12 1 0
BITMAP
0000091F000000
000048F8000000
00002888000000
00000000000000
40FFFFF8000000
01044BF8000000
000048F8000000
000048F8000000
000048F8000000
000048F8000000
04044BF9040402
C8FFFFFFFFFF78
ENDCHAR
STARTCHAR j
ENCODING -1
SWIDTH 602 0
DWIDTH 8 0
BBX 5 16 1 -4
BITMAP
0000001E0B
000000EC58
0000008231
0000000000
14FFFFFF58
010808ED58
000000EB58
000000EA58
000000E958
000000E858
000000E758
000000E658
000000EB53
0C104EFF25
BCFFFB8100
0C10070000
ENDCHAR
STARTCHAR k
ENCODING -1
SWIDTH 602 0
DWIDTH 8 0
BBX 8 12 1 0
BITMAP
0D1D000000000000
64E8000000000000
64E8000000000000
64E8000000000000
64E800004EF24800
64E8004DF2480000
64E84CF248000000
64FAF6F221000000
64FB42BBC3030000
64E8001DF0790000
64E800005CFB3200
64E8000001ADD609
ENDCHAR
STARTCHAR l
ENCODING -1
SWIDTH 602 0
DWIDTH 8 0
BBX 7 12 1 0
BITMAP
30343414000000
C1D4FC60000000
0000E460000000
0000E460000000
0000E460000000
0000E460000000
0000E460000000
0000E460000000
0000E460000000
0000DF68000000
0000ADC3231C02
000023CDFFFF10
ENDCHAR
STARTCHAR m
ENCODING -1
SWIDTH 602 0
DWIDTH 8 0
BBX 8 8 0 0
BITMAP
3CF4C4F58CDDEB34
3CFF1A80F60E9695
3CF0005ADA0072B2
3CEC0055D4006DB8
3CEC0054D4006CB8
3CEC0054D4006CB8
3CEC0054D4006CB8
3CEC0054D4006CB8
ENDCHAR
STARTCHAR n
ENCODING -1
SWIDTH 602 0
DWIDTH 8 0
BBX 7 8 1 0
BITMAP
A4A8AAF2EB5A00
A4F842017BF107
A4B800001FFF28
A49D000015FF30
A49C000014FF30
A49C000014FF30
A49C000014FF30
A49C000014FF30
ENDCHAR
STARTCHAR o
ENCODING -1
SWIDTH 602 0
DWIDTH 8 0
BBX 8 8 0 0
BITMAP
00058FEDFBC53000
0084E83B1BA1E80C
00E67800000FFC55
0BFF4E000000DF7A
09FF4E000000DF7A
00E47900000FFC55
0082E93B1BA2E80C
000690EEFCC73100
ENDCHAR
STARTCHAR p
ENCODING -1
SWIDTH 602 0
DWIDTH 8 0
BBX 7 12 1 -4
BITMAP
B0B2C5EBD84300
B0FD41005FF316
B0C0000001E465
B09C000000C187
B09F000000C485
B0CC000004EC61
B0FE6A1B87F012
B0A4BDFDD84000
B0920000000000
B0930000000000
B0930000000000
09070000000000
ENDCHAR
STARTCHAR q
ENCODING -1
SWIDTH 602 0
DWIDTH 8 0
BBX 8 12 0 -4
BITMAP
000594F4EB68D02E
0077EA4031CFFF38
00D77B00004FFF38
03FE4C000022FF38
06FF4700001CFF38
00ED63000037FF38
00A6C1040199FF38
0022E7DCD0C0FF38
000011564D10FF38
00000000000CFF38
00000000000CFF38
000000000003400E
ENDCHAR
STARTCHAR r
ENCODING -1
SWIDTH 602 0
DWIDTH 8 0
BBX 6 8 2 0
BITMAP
7CC865E5FCBF
7CEEAC1D0E54
7CF80F000000
7CD000000000
7CC800000000
7CC800000000
7CC800000000
7CC800000000
ENDCHAR
STARTCHAR s
ENCODING -1
SWIDTH 602 0
DWIDTH 8 0
BBX 7 8 1 0
BITMAP
038CEAFEE47200
5AF13810325600
76DE0400000000
24ECDF9D640A00
000F5793F0BE00
000000004DFF0B
525518179ADE01
51D2FAF9C22F00
ENDCHAR
STARTCHAR t
ENCODING -1
SWIDTH 602 0
DWIDTH 8 0
BBX 8 11 0 0
BITMAP
000005480F000000
000010FF34000000
000010FF34000000
1CFFFFFFFFFFFF10
010414FF3B080801
000010FF34000000
000010FF34000000
000010FF34000000
00000FFF36000000
000002EF850F0C01
0000005CE5FFFF0C
ENDCHAR
STARTCHAR u
ENCODING -1
SWIDTH 602 0
DWIDTH 8 0
BBX 7 8 1 0
BITMAP
AC9800001CFF28
AC9800001CFF28
AC9800001CFF28
AC9800001CFF28
AC9800001EFF28
A4A0000039FF28
72E5180BAFFF28
0DB7F9DD6BFF28
ENDCHAR
STARTCHAR v
ENCODING -1
SWIDTH 602 0
DWIDTH 8 0
BBX 8 8 0 0
BITMAP
25FF27000000BB95
00CE7C000014FC3E
0077D1000064E502
0021FF2600B99000
0000C97B12FB3900
000072D062E10100
00001DFFD58B0000
000000C4FF340000
ENDCHAR
STARTCHAR w
ENCODING -1
SWIDTH 602 0
DWIDTH 8 0
BBX 9 8 0 0
BITMAP
E45A0000000001EB50
AA8F0000000020FF17
71C30048910054DE00
37F504A4F31389A500
06F82DDA9055BD6C00
00C48CB2439BF13300
008BF36B07E8F60500
0051FF2400B4C10000
ENDCHAR
STARTCHAR x
ENCODING -1
SWIDTH 602 0
DWIDTH 8 0
BBX 8 8 0 0
BITMAP
09D58A000028F54A
002EF64005CC9200
00006DE291D30900
000001BAFD2D0000
000012E3F9630000
0001ADB94DF42700
0067ED1A0099CD06
2AF65200000CDB8C
ENDCHAR
STARTCHAR y
ENCODING -1
SWIDTH 602 0
DWIDTH 8 0
BBX 8 12 0 -4
BITMAP
1CFE3A000000A2B1
00B99700000BF452
0059ED060059ED07
0009F15000B49400
000099AC15FC3500
00003AF97BD60100
000001DAFA790000
0000007BFF1F0000
00000090BF000000
000C32F35A000000
00BCFFA503000000
0009080000000000
ENDCHAR
STARTCHAR z
ENCODING -1
SWIDTH 602 0
DWIDTH 8 0
BBX 7 8 1 0
BITMAP
74FFFFFFFFFF1C
060C0C0C9BD608
00000056F42A00
000027F35A0000
000BD395000000
01A1CB07000000
61F33010101002
9CFFFFFFFFFF1C
ENDCHAR
STARTCHAR braceleft
ENCODING -1
SWIDTH 602 0
DWIDTH 8 0
BBX 6 15 1 -3
BITMAP
000000000712
000008BAFCDB
00004BFD2100
000064E90000
000064E80000
000068E60000
0001A3C30000
69E8EF320000
163ED1A70000
000070E60000
000065EC0000
000064EC0000
000059F90600
00001CF3CC96
0000001B5A5D
ENDCHAR
STARTCHAR bar
ENCODING -1
SWIDTH 602 0
DWIDTH 8 0
BBX 2 16 3 -4
BITMAP
142A
60CC
60CC
60CC
60CC
60CC
60CC
60CC
60CC
60CC
60CC
60CC
60CC
60CC
60CC
2C5D
ENDCHAR
STARTCHAR braceright
ENCODING -1
SWIDTH 602 0
DWIDTH 8 0
BBX 6 15 1 -3
BITMAP
0C1201000000
73F7E9430000
0003ADB00000
00007EC70000
00007CC80000
00007BCC0000
000059F41900
000004B3F8C5
00003FFD5F26
00007BD30000
000080C80000
000081C80000
000096BC0000
51B4FA720000
316036010000
ENDCHAR
STARTCHAR asciitilde
ENCODING -1
SWIDTH 602 0
DWIDTH 8 0
BBX 8 3 0 3
BITMAP
00478B771F000139
4EE5AACBFCC6D2C2
1F0900002D77670D
ENDCHAR
STARTCHAR nonbreakingspace
ENCODING -1
SWIDTH 602 0
DWIDTH 8 0
BBX 1 1 0 0
BITMAP
00
ENDCHAR
STARTCHAR exclamdown
ENCODING -1
SWIDTH 602 0
DWIDTH 8 0
BBX 2 11 3 0
BITMAP
519F
78EC
1122
152F
5FCF
6DDF
78EC
78EC
78EC
78EC
78EC
ENDCHAR
STARTCHAR cent
ENCODING -1
SWIDTH 602 0
DWIDTH 8 0
BBX 7 14 1 -3
BITMAP
00000003060000
000000387C0000
000000387C0000
001FB7F8FADB2C
06D7A744812B1E
51F91138800000
7ED30038800000
7DD60038800000
4CFD1938800000
04CEBD5B884727
0017A7F4FFD62B
00000034800000
00000034800000
00000003060000
ENDCHAR
STARTCHAR sterling
ENCODING -1
SWIDTH 602 0
DWIDTH 8 0
BBX 8 11 0 0
BITMAP
0000001583A9922C
000005D4D9758C68
000042FF30000001
000064FD02000000
000068F800000000
005CB0FC78783C00
0069B9FD88884400
000068F800000000
000068F800000000
013085FA3030301F
04FFFFFFFFFFFFA4
ENDCHAR
STARTCHAR currency
ENCODING -1
SWIDTH 602 0
DWIDTH 8 0
BBX 7 7 1 1
BITMAP
39560000005B35
20DCC5E7C6D819
00A15E00689700
00D10F0019C300
009D84178D8C00
32DE9FD098E12D
28350000003C1B
ENDCHAR
STARTCHAR yen
ENCODING -1
SWIDTH 602 0
DWIDTH 8 0
BBX 9 11 0 0
BITMAP
62990200000055A307
23FA57000009E58400
0090DB050075E80D00
0014F1670FED650000
25A8E1E68BFFAC6C00
072023DCFF58201500
1E8888C6F889885800
0E40409DEE40402900
0000007CE800000000
0000007CE800000000
0000007CE800000000
ENDCHAR
STARTCHAR brokenbar
ENCODING -1
SWIDTH 602 0
DWIDTH 8 0
BBX 2 14 3 -3
BITMAP
1833
60CC
60CC
60CC
60CC
60CC
1124
0000
59BD
60CC
60CC
60CC
60CC
3066
ENDCHAR
STARTCHAR section
ENCODING -1
SWIDTH 602 0
DWIDTH 8 0
BBX 7 13 1 -2
BITMAP
002692AB912800
0BEAA45A894E00
27FF2900000000
03CAD029000000
24DCA6F8840500
91870036DFA900
8AB8030033FF0D
16D2BE2549E803
000985F3EF3A00
00000033F16E00
02010000B19A00
14D6909CF84400
034977782E0000
ENDCHAR
STARTCHAR dieresis
ENCODING -1
SWIDTH 602 0
DWIDTH 8 0
BBX 5 3 2 9
BITMAP
1710041C07
D09024FF3C
48320D5815
ENDCHAR
STARTCHAR copyright
ENCODING -1
SWIDTH 602 0
DWIDTH 8 0
BBX 9 10 0 0
BITMAP
000154A9B785180000
029E801B0B46C02F00
66714DC4B6AC13BD04
B817E3150004007742
B541B5000000004D68
B92AD2010000006156
8F3DA3A3607B01B613
13C132385633946700
0018A4BCB5BF570000
000000030900000000
ENDCHAR
STARTCHAR ordfeminine
ENCODING -1
SWIDTH 602 0
DWIDTH 8 0
BBX 6 8 1 3
BITMAP
004A9EA55C00
0054363BD248
001A7288C382
07E27B4E9F87
20EB0301B786
02BFCCC6C385
011236201610
04D4D4D4D478
ENDCHAR
STARTCHAR guillemotleft
ENCODING -1
SWIDTH 602 0
DWIDTH 8 0
BBX 8 7 0 1
BITMAP
0000002C03001E11
000037E80427E11B
0044EA4A32E65F00
21F9480DF1600000
05A3C2108BD21900
000293CD027ADC0E
000001820400691E
ENDCHAR
STARTCHAR logicalnot
ENCODING -1
SWIDTH 602 0
DWIDTH 8 0
BBX 8 5 0 2
BITMAP
122C2C2C2C2C2C25
64FFFFFFFFFFFFD4
0710101010105FD4
00000000000054D4
0000000000001D49
ENDCHAR
STARTCHAR sfthyphen
ENCODING -1
SWIDTH 602 0
DWIDTH 8 0
BBX 4 2 2 3
BITMAP
589C9C9C
54949494
ENDCHAR
STARTCHAR registered
ENCODING -1
SWIDTH 602 0
DWIDTH 8 0
BBX 9 10 0 0
BITMAP
000154A3AE7C120000
03A07D1D104EC02500
6C6877B8A57D1AB801
B802885801E30D8435
B40088B8A99701595C
B800885D788B006D4B
9931885C04CF2EBB0D
19C136090014A56000
001FADBBB2C3540000
000000060C00000000
ENDCHAR
STARTCHAR macron
ENCODING -1
SWIDTH 602 0
DWIDTH 8 0
BBX 5 2 2 9
BITMAP
C4ECECEC3B
1E24242409
ENDCHAR
STARTCHAR degree
ENCODING -1
SWIDTH 602 0
DWIDTH 8 0
BBX 5 5 2 6
BITMAP
0E88A33F00
A78E50DB23
E80400815F
C16220CB33
25BAD36500
ENDCHAR
STARTCHAR plusminus
ENCODING -1
SWIDTH 602 0
DWIDTH 8 0
BBX 8 9 0 0
BITMAP
000000234B000000
0000005CC8000000
04080862CA080807
64FFFFFFFFFFFFD4
1330307BD3303028
0000005CC8000000
0000003471000000
163838383838382F
64FFFFFFFFFFFFD4
ENDCHAR
STARTCHAR twosuperior
ENCODING -1
SWIDTH 602 0
DWIDTH 8 0
BBX 5 7 2 4
BITMAP
50A39B3000
4E2452EB03
00001DEC03
0009BF5000
07B5600000
A4C36E6F0B
4E60606009
ENDCHAR
STARTCHAR threesuperior
ENCODING -1
SWIDTH 602 0
DWIDTH 8 0
BBX 5 7 2 4
BITMAP
49A1A14800
32283DF217
001E4CDD0D
0067B8A305
000000CD43
614F6BED1E
407D722400
ENDCHAR
STARTCHAR acute
ENCODING -1
SWIDTH 602 0
DWIDTH 8 0
BBX 4 3 3 9
BITMAP
0015B22A
01B38200
65AC0200
ENDCHAR
STARTCHAR mu
ENCODING -1
SWIDTH 602 0
DWIDTH 8 0
BBX 8 12 1 -4
BITMAP
B09400001CFF2800
B09400001CFF2800
B09400001CFF2800
AF9400001CFF2800
AF9400001EFF2800
AFA600003AFF2800
AEF54A2EC0FF6302
AEA4DDF98DB2EA03
AE78000000000000
AD78000000000000
AD78000000000000
0906000000000000
ENDCHAR
STARTCHAR paragraph
ENCODING -1
SWIDTH 602 0
DWIDTH 8 0
BBX 8 13 0 -2
BITMAP
000463A3ACACAC06
00A9FFFFCF2CF008
28FFFFFFC400EC08
41FFFFFFC400EC08
15FAFFFFC400EC08
0060F7FFC400EC08
0000126DC400EC08
00000034C400EC08
00000034C400EC08
00000034C400EC08
00000034C400EC08
00000034C400EC08
000000154D005D04
ENDCHAR
STARTCHAR periodcentered
ENCODING -1
SWIDTH 602 0
DWIDTH 8 0
BBX 3 3 3 4
BITMAP
203003
A8FF10
A8FF10
ENDCHAR
STARTCHAR cedilla
ENCODING -1
SWIDTH 602 0
DWIDTH 8 0
BBX 4 3 2 -3
BITMAP
0001B330
111A9480
32C9BD2A
ENDCHAR
STARTCHAR onesuperior
ENCODING -1
SWIDTH 602 0
DWIDTH 8 0
BBX 5 7 2 4
BITMAP
4A99940000
3E53DC0000
0020DC0000
0020DC0000
0020DC0000
428DEE7C1F
2B50505014
ENDCHAR
STARTCHAR ordmasculine
ENCODING -1
SWIDTH 602 0
DWIDTH 8 0
BBX 6 8 1 3
BITMAP
001D90A45100
06DC6E3DDA4D
3ED2000068AC
4DC0000055BC
21EC0D00928C
007FD4B5D116
010820310B05
18D8D8D8D870
ENDCHAR
STARTCHAR guillemotright
ENCODING -1
SWIDTH 602 0
DWIDTH 8 0
BBX 7 7 1 1
BITMAP
2E00002E010000
A979018E920200
19D38C10C2A305
0012DF7209CC8A
017BDC2263E52F
7BD21960DF2500
7611006A1C0000
ENDCHAR
STARTCHAR onequarter
ENCODING -1
SWIDTH 602 0
DWIDTH 8 0
BBX 8 14 0 -2
BITMAP
42C0DE1500000000
1510E41800000000
0000E41800000000
0000E41800000000
0000E41800000000
32B0F8B856000A18
081C22578BBDC756
60B6CA9452180900
3819000003C4AC00
000000007196AC00
00000024A645AC00
000000B74D68BC17
0000008A98B4DE48
000000000040A200
ENDCHAR
STARTCHAR onehalf
ENCODING -1
SWIDTH 602 0
DWIDTH 8 0
BBX 8 14 0 -2
BITMAP
42C0DE1500000000
1510E41800000000
0000E41800000000
0000E41800000000
0000E41800000000
32B0F8B856000A18
081C22578BBDC756
60B6CA945D2D0200
3819004BBFB4D419
000000060000AB64
000000000015DC22
000000000FC44A00
0000000DC14F0000
00000066E5D0D062
ENDCHAR
STARTCHAR threequarters
ENCODING -1
SWIDTH 602 0
DWIDTH 8 0
BBX 8 14 0 -2
BITMAP
18CBCCC92A000000
0404008194000000
001B7EC13A000000
001153BB69000000
0000005ABA000000
44AE9CE255000816
0123354579BBCD5A
5EB3D09C5A1A0300
3E20000002C1AC00
000000006C9AAC00
00000021A845AC00
000000B44A65BB15
00000091A0BAE14B
000000000042A700
ENDCHAR
STARTCHAR questiondown
ENCODING -1
SWIDTH 602 0
DWIDTH 8 0
BBX 6 11 1 0
BITMAP
000031AC1100
000048FF1800
000009200300
000037DA0E00
000046FF0B00
0002ACC90000
019CE4230000
5FF627000000
9FC300000003
70FA5D2D6AA7
0697F2FBCC55
ENDCHAR
STARTCHAR Agrave
ENCODING -1
SWIDTH 602 0
DWIDTH 8 0
BBX 9 14 0 0
BITMAP
00001D8F0B00000000
0000008B9A00000000
000000034E07000000
0000007DAC19000000
000006F3F564000000
000044F491AF000000
00008FB547F4070000
0000DA700BF9450000
0025FF2B00BF900000
0070E601007BDB0000
00BBFDF0F0F6FF2600
0DFA78383838EC7100
51FF17000000A9BC00
9BD20000000063FA0D
ENDCHAR
STARTCHAR Aacute
ENCODING -1
SWIDTH 602 0
DWIDTH 8 0
BBX 9 14 0 0
BITMAP
000000005B5C000000
00000033DC17000000
000000342300000000
0000007DAC19000000
000006F3F564000000
000044F491AF000000
00008FB547F4070000
0000DA700BF9450000
0025FF2B00BF900000
0070E601007BDB0000
00BBFDF0F0F6FF2600
0DFA78383838EC7100
51FF17000000A9BC00
9BD20000000063FA0D
ENDCHAR
STARTCHAR Acircumflex
ENCODING -1
SWIDTH 602 0
DWIDTH 8 0
BBX 9 14 0 0
BITMAP
000000659510000000
000046C369AD010000
00003D1200400F0000
0000007DAC19000000
000006F3F564000000
000044F491AF000000
00008FB547F4070000
0000DA700BF9450000
0025FF2B00BF900000
0070E601007BDB0000
00BBFDF0F0F6FF2600
0DFA78383838EC7100
51FF17000000A9BC00
9BD20000000063FA0D
ENDCHAR
STARTCHAR Atilde
ENCODING -1
SWIDTH 602 0
DWIDTH 8 0
BBX 9 14 0 0
BITMAP
0000316E1737360000
0000DA76D8DF2F0000
000015000308000000
0000007DAC19000000
000006F3F564000000
000044F491AF000000
00008FB547F4070000
0000DA700BF9450000
0025FF2B00BF900000
0070E601007BDB0000
00BBFDF0F0F6FF2600
0DFA78383838EC7100
51FF17000000A9BC00
9BD20000000063FA0D
ENDCHAR
STARTCHAR Adieresis
ENCODING -1
SWIDTH 602 0
DWIDTH 8 0
BBX 9 14 0 0
BITMAP
00004E360E60170000
0000D09024FF3C0000
0000110C0314050000
0000007DAC19000000
000006F3F564000000
000044F491AF000000
00008FB547F4070000
0000DA700BF9450000
0025FF2B00BF900000
0070E601007BDB0000
00BBFDF0F0F6FF2600
0DFA78383838EC7100
51FF17000000A9BC00
9BD20000000063FA0D
ENDCHAR
STARTCHAR Aring
ENCODING -1
SWIDTH 602 0
DWIDTH 8 0
BBX 9 14 0 0
BITMAP
000002678920000000
00006DAA63D1020000
0000A04200CC0E0000
00004BD4A5B4000000
000007F5F666000000
000046F593B1000000
000091B648F5080000
0000DB710BF9460000
0026FF2C00BF910000
0071E601007BDC0100
00BBFDF0F0F6FF2600
0DFA78383838EC7100
51FF17000000A9BC00
9BD20000000063FA0D
ENDCHAR
STARTCHAR AE
ENCODING -1
SWIDTH 602 0
DWIDTH 8 0
BBX 9 11 0 0
BITMAP
000033ACACACACA200
000084CED7D58C8400
0000C763A4A0000000
000EFC23A4A0000000
004DE301A4BD4C3700
0090A300A4F9ECAA00
00D36300A4A0000000
17FFF5F0FBA0000000
59E64444BDA0000000
9CA40000A4B5383804
DF640000A4FFFFFF10
ENDCHAR
STARTCHAR Ccedilla
ENCODING -1
SWIDTH 602 0
DWIDTH 8 0
BBX 8 14 0 -3
BITMAP
0000035CA0A67813
0003B3EA897FCA58
0065F92700000110
00C3AC0000000000
00F37C0000000000
03FF6E0000000000
01FB750000000000
00D9980000000000
008FE60A00000000
0019EBB6372D794A
000027B4F5FBCC2E
0000000017C60500
0000001C1BD93000
00000070CE9F0600
ENDCHAR
STARTCHAR Egrave
ENCODING -1
SWIDTH 602 0
DWIDTH 8 0
BBX 7 14 1 0
BITMAP
000E8F19000000
00006BB9020000
00000147100000
71ACACACACAC46
A8E28C8C8C8C39
A8BC0000000000
A8BC0000000000
A8D14C4C4C4C10
A8FBECECECEC30
A8BC0000000000
A8BC0000000000
A8BC0000000000
A8CB383838381E
A8FFFFFFFFFF88
ENDCHAR
STARTCHAR Eacute
ENCODING -1
SWIDTH 602 0
DWIDTH 8 0
BBX 7 14 1 0
BITMAP
000000496F0000
00001EE0280000
00002A2D000000
71ACACACACAC46
A8E28C8C8C8C39
A8BC0000000000
A8BC0000000000
A8D14C4C4C4C10
A8FBECECECEC30
A8BC0000000000
A8BC0000000000
A8BC0000000000
A8CB383838381E
A8FFFFFFFFFF88
ENDCHAR
STARTCHAR Ecircumflex
ENCODING -1
SWIDTH 602 0
DWIDTH 8 0
BBX 7 14 1 0
BITMAP
00005298200000
002ECF59C40600
00331C00361900
71ACACACACAC46
A8E28C8C8C8C39
A8BC0000000000
A8BC0000000000
A8D14C4C4C4C10
A8FBECECECEC30
A8BC0000000000
A8BC0000000000
A8BC0000000000
A8CB383838381E
A8FFFFFFFFFF88
ENDCHAR
STARTCHAR Edieresis
ENCODING -1
SWIDTH 602 0
DWIDTH 8 0
BBX 7 14 1 0
BITMAP
00444202602300
00B4B004FF5C00
000F0E01140800
71ACACACACAC46
A8E28C8C8C8C39
A8BC0000000000
A8BC0000000000
A8D14C4C4C4C10
A8FBECECECEC30
A8BC0000000000
A8BC0000000000
A8BC0000000000
A8CB383838381E
A8FFFFFFFFFF88
ENDCHAR
STARTCHAR Igrave
ENCODING -1
SWIDTH 602 0
DWIDTH 8 0
BBX 7 14 1 0
BITMAP
001D8F0B000000
00008B9A000000
0000034E070000
6CACACACACAC09
588CC5F68C8C07
00007CE8000000
00007CE8000000
00007CE8000000
00007CE8000000
00007CE8000000
00007CE8000000
00007CE8000000
233899EE383803
A0FFFFFFFFFF0C
ENDCHAR
STARTCHAR Iacute
ENCODING -1
SWIDTH 602 0
DWIDTH 8 0
BBX 7 14 1 0
BITMAP
0000005B5C0000
000033DC170000
00003423000000
6CACACACACAC09
588CC5F68C8C07
00007CE8000000
00007CE8000000
00007CE8000000
00007CE8000000
00007CE8000000
00007CE8000000
00007CE8000000
233899EE383803
A0FFFFFFFFFF0C
ENDCHAR
STARTCHAR Icircumflex
ENCODING -1
SWIDTH 602 0
DWIDTH 8 0
BBX 7 14 1 0
BITMAP
00006595100000
0046C369AD0100
003D1200400F00
6CACACACACAC09
588CC5F68C8C07
00007CE8000000
00007CE8000000
00007CE8000000
00007CE8000000
00007CE8000000
00007CE8000000
00007CE8000000
233899EE383803
A0FFFFFFFFFF0C
ENDCHAR
STARTCHAR Idieresis
ENCODING -1
SWIDTH 602 0
DWIDTH 8 0
BBX 7 14 1 0
BITMAP
004E360E601700
00D09024FF3C00
00110C03140500
6CACACACACAC09
588CC5F68C8C07
00007CE8000000
00007CE8000000
00007CE8000000
00007CE8000000
00007CE8000000
00007CE8000000
00007CE8000000
233899EE383803
A0FFFFFFFFFF0C
ENDCHAR
STARTCHAR Eth
ENCODING -1
SWIDTH 602 0
DWIDTH 8 0
BBX 8 11 0 0
BITMAP
11ACAC9D751B0000
18FFB196D1F54500
18FF5000019CE707
18FF50000027FF48
37FF641C0402FA73
E3FFF8F41B00EE82
18FF50000000F47B
18FF50000013FF5B
18FF50000064FC1A
18FF6C3C78F58A00
18FFFFFBD36E0200
ENDCHAR
STARTCHAR Ntilde
ENCODING -1
SWIDTH 602 0
DWIDTH 8 0
BBX 8 14 0 0
BITMAP
00003F690F462600
000EDC7DDBDC1A00
0003120005060000
09AC900000009454
0CFFFF2A0000DC7C
0CFFE28D0000DC7C
0CFF80EB0700DC7C
0CFF49D35600DC7C
0CFF486FBA00DC7C
0CFF4812F620DC7C
0CFF4800A582DC7C
0CFF480041E4E07C
0CFF480001DBFF7C
0CFF48000077FF7C
ENDCHAR
STARTCHAR Ograve
ENCODING -1
SWIDTH 602 0
DWIDTH 8 0
BBX 8 14 0 0
BITMAP
00001B6303000000
000002AE7A000000
0000000C75070000
00003497A66B0500
003CFBA781E9A600
00BDB6000043FF2C
06FA6B000004F771
21FF4E000000DC92
2BFF45000000D29E
25FF49000000D799
0DFF5E000000EC7F
00D693000021FF48
006EF6512BB5D905
000285ECFBC12700
ENDCHAR
STARTCHAR Oacute
ENCODING -1
SWIDTH 602 0
DWIDTH 8 0
BBX 8 14 0 0
BITMAP
000000003A480000
0000001EE12B0000
000000483E000000
00003497A66B0500
003CFBA781E9A600
00BDB6000043FF2C
06FA6B000004F771
21FF4E000000DC92
2BFF45000000D29E
25FF49000000D799
0DFF5E000000EC7F
00D693000021FF48
006EF6512BB5D905
000285ECFBC12700
ENDCHAR
STARTCHAR Ocircumflex
ENCODING -1
SWIDTH 602 0
DWIDTH 8 0
BBX 8 14 0 0
BITMAP
0000004169060000
00002DD4938E0000
00005625016A0F00
00003497A66B0500
003CFBA781E9A600
00BDB6000043FF2C
06FA6B000004F771
21FF4E000000DC92
2BFF45000000D29E
25FF49000000D799
0DFF5E000000EC7F
00D693000021FF48
006EF6512BB5D905
000285ECFBC12700
ENDCHAR
STARTCHAR Otilde
ENCODING -1
SWIDTH 602 0
DWIDTH 8 0
BBX 8 14 0 0
BITMAP
0000174205222400
0000CFA2D4D34100
00003B001B290000
00003497A66B0500
003CFBA781E9A600
00BDB6000043FF2C
06FA6B000004F771
21FF4E000000DC92
2BFF45000000D29E
25FF49000000D799
0DFF5E000000EC7F
00D693000021FF48
006EF6512BB5D905
000285ECFBC12700
ENDCHAR
STARTCHAR Odieresis
ENCODING -1
SWIDTH 602 0
DWIDTH 8 0
BBX 8 14 0 0
BITMAP
00002B1E08340D00
0000D09024FF3C00
0000342409400F00
00003497A66B0500
003CFBA781E9A600
00BDB6000043FF2C
06FA6B000004F771
21FF4E000000DC92
2BFF45000000D29E
25FF49000000D799
0DFF5E000000EC7F
00D693000021FF48
006EF6512BB5D905
000285ECFBC12700
ENDCHAR
STARTCHAR multiply
ENCODING -1
SWIDTH 602 0
DWIDTH 8 0
BBX 7 7 1 1
BITMAP
8F4300000BAA20
69F43B08BCCA0E
0073F1BED11200
0003D1FF430000
029FDF99E82600
93E5220198E21D
62280000027B0D
ENDCHAR
STARTCHAR Oslash
ENCODING -1
SWIDTH 602 0
DWIDTH 8 0
BBX 9 12 0 -1
BITMAP
00003396A66908AD0C
0039FAA680E7DC8D00
00B9B9000062FF3300
05F972000AD2FB7000
20FF55009378DC9000
2BFF4A45C303D59B00
27FF5AD82300DB9500
12FFE5630001F17B00
01E5BF010027FF4500
1AEBF05130BBD90400
AF578EEEFBC0260000
190000000000000000
ENDCHAR
STARTCHAR Ugrave
ENCODING -1
SWIDTH 602 0
DWIDTH 8 0
BBX 8 14 0 0
BITMAP
0000238C07000000
000000978E000000
000000064E040000
08AC3C000006AC3C
0AFF58000008FF58
09FF58000008FF58
07FF58000008FF58
05FF58000008FF58
03FF58000008FF58
01FF58000008FF58
00FE59000009FF55
00E966000017FF42
00A0D84131A7EE0D
000E9FF2FCC73600
ENDCHAR
STARTCHAR Uacute
ENCODING -1
SWIDTH 602 0
DWIDTH 8 0
BBX 8 14 0 0
BITMAP
0000000062550000
0000003DD8120000
000000371F000000
08AC3C000006AC3C
0AFF58000008FF58
09FF58000008FF58
07FF58000008FF58
05FF58000008FF58
03FF58000008FF58
01FF58000008FF58
00FE59000009FF55
00E966000017FF42
00A0D84131A7EE0D
000E9FF2FCC73600
ENDCHAR
STARTCHAR Ucircumflex
ENCODING -1
SWIDTH 602 0
DWIDTH 8 0
BBX 8 14 0 0
BITMAP
0000006C920C0000
000051BA73A30100
0000410E00440B00
08AC3C000006AC3C
0AFF58000008FF58
09FF58000008FF58
07FF58000008FF58
05FF58000008FF58
03FF58000008FF58
01FF58000008FF58
00FE59000009FF55
00E966000017FF42
00A0D84131A7EE0D
000E9FF2FCC73600
ENDCHAR
STARTCHAR Udieresis
ENCODING -1
SWIDTH 602 0
DWIDTH 8 0
BBX 8 14 0 0
BITMAP
0000533212601200
0000DC8430FF3000
0000120B04140400
08AC3C000006AC3C
0AFF58000008FF58
09FF58000008FF58
07FF58000008FF58
05FF58000008FF58
03FF58000008FF58
01FF58000008FF58
00FE59000009FF55
00E966000017FF42
00A0D84131A7EE0D
000E9FF2FCC73600
ENDCHAR
STARTCHAR Yacute
ENCODING -1
SWIDTH 602 0
DWIDTH 8 0
BBX 9 14 0 0
BITMAP
000000005B5C000000
00000033DC17000000
000000342300000000
62990200000055A307
22F957000009E58500
008CDB050075EA0E00
0011ED670FED680000
00006FE68BD7040000
000006DBFF4C000000
0000007FEB01000000
0000007CE800000000
0000007CE800000000
0000007CE800000000
0000007CE800000000
ENDCHAR
STARTCHAR Thorn
ENCODING -1
SWIDTH 602 0
DWIDTH 8 0
BBX 7 11 1 0
BITMAP
6C810000000000
A0C00000000000
A0EFBCBCA75B01
A0DD7478ACFF7B
A0C0000000ABDF
A0C000000087F1
A0C0000014D7C8
A0F5D4D7F8F03E
A0D75C5C480E00
A0C00000000000
9EBD0000000000
ENDCHAR
STARTCHAR germandbls
ENCODING -1
SWIDTH 602 0
DWIDTH 8 0
BBX 7 12 1 0
BITMAP
00000C11000000
11B8FFFFD32A00
86E11F0AA1BF00
B798000A85F800
B8900FD8821A00
B8905FDB000000
B89050F93D0000
B8900298FD8202
B890000046F075
B89000000089C5
B8902C020ABCAB
B890CDF1EFB61C
ENDCHAR
STARTCHAR agrave
ENCODING -1
SWIDTH 602 0
DWIDTH 8 0
BBX 8 12 0 0
BITMAP
0002926000000000
000028E72C000000
00000047C8070000
0000000000000000
0042C8F6FAC73900
00556425228EEE0B
00000000000AFF36
001AA3E2F0F0FF40
00C7B32B0E13FF41
08FF37000034FF42
01E57F0112BDFF43
003ED7EEDC5FFF44
ENDCHAR
STARTCHAR aacute
ENCODING -1
SWIDTH 602 0
DWIDTH 8 0
BBX 8 12 0 0
BITMAP
0000000015B22A00
00000001B3820000
00000065AC020000
0000000000000000
0042C8F6FAC73900
00556425228EEE0B
00000000000AFF36
001AA3E2F0F0FF40
00C7B32B0E13FF41
08FF37000034FF42
01E57F0112BDFF43
003ED7EEDC5FFF44
ENDCHAR
STARTCHAR acircumflex
ENCODING -1
SWIDTH 602 0
DWIDTH 8 0
BBX 8 12 0 0
BITMAP
0000005EA8060000
00001BDEA67C0000
0000A6510ACB2200
0000000000000000
0042C8F6FAC73900
00556425228EEE0B
00000000000AFF36
001AA3E2F0F0FF40
00C7B32B0E13FF41
08FF37000034FF42
01E57F0112BDFF43
003ED7EEDC5FFF44
ENDCHAR
STARTCHAR atilde
ENCODING -1
SWIDTH 602 0
DWIDTH 8 0
BBX 8 12 0 0
BITMAP
00001E53042B2B00
0000CEADAFAC5300
0002880065820500
0000000000000000
0042C8F6FAC73900
00556425228EEE0B
00000000000AFF36
001AA3E2F0F0FF40
00C7B32B0E13FF41
08FF37000034FF42
01E57F0112BDFF43
003ED7EEDC5FFF44
ENDCHAR
STARTCHAR adieresis
ENCODING -1
SWIDTH 602 0
DWIDTH 8 0
BBX 8 12 0 0
BITMAP
00001710041C0700
0000D09024FF3C00
000048320D581500
0000000000000000
0042C8F6FAC73900
00556425228EEE0B
00000000000AFF36
001AA3E2F0F0FF40
00C7B32B0E13FF41
08FF37000034FF42
01E57F0112BDFF43
003ED7EEDC5FFF44
ENDCHAR
STARTCHAR aring
ENCODING -1
SWIDTH 602 0
DWIDTH 8 0
BBX 8 13 0 0
BITMAP
000012AFD1520000
00008A721BDA0800
0000965305D70C00
000025D7E17A0000
0000000206000000
0042C8F6FAC73900
00556425228EEE0B
00000000000AFF36
001AA3E2F0F0FF40
00C7B32B0E13FF41
08FF37000034FF42
01E57F0112BDFF43
003ED7EEDC5FFF44
ENDCHAR
STARTCHAR ae
ENCODING -1
SWIDTH 602 0
DWIDTH 8 0
BBX 9 8 0 0
BITMAP
27D2FCCF7BEFF16700
234014A2FF3B46F305
00000046E70001F425
015DA0BEF5A8A8F833
6DE06782E250505011
B0770052DF00000000
9AB1149CFF4C126003
25D3FDBE5AE6FBBA02
ENDCHAR
STARTCHAR ccedilla
ENCODING -1
SWIDTH 602 0
DWIDTH 8 0
BBX 7 11 1 -3
BITMAP
0024B1F3F9C222
10E6AA26186236
6CEC0800000000
9AB80000000000
9AB90000000000
6CED0A00000000
11E6AE291B6232
0025B3F5FBC320
00000014C80700
00001C1AD33500
00006ACEA30800
ENDCHAR
STARTCHAR egrave
ENCODING -1
SWIDTH 602 0
DWIDTH 8 0
BBX 8 12 0 0
BITMAP
0000827200000000
00001BE33E000000
00000035D30F0000
0000000000000000
000172E0FDD54700
0074EC491668F722
03EB6C000000C77A
1EFFC5B0B0B0E69A
1EFF714C4C4C4C31
03ED640000000000
0077EA4C1429753C
000170DDFEEFB527
ENDCHAR
STARTCHAR eacute
ENCODING -1
SWIDTH 602 0
DWIDTH 8 0
BBX 8 12 0 0
BITMAP
000000000CAC3D00
000000009C9D0100
0000004EBF060000
0000000000000000
000172E0FDD54700
0074EC491668F722
03EB6C000000C77A
1EFFC5B0B0B0E69A
1EFF714C4C4C4C31
03ED640000000000
0077EA4C1429753C
000170DDFEEFB527
ENDCHAR
STARTCHAR ecircumflex
ENCODING -1
SWIDTH 602 0
DWIDTH 8 0
BBX 8 12 0 0
BITMAP
0000004DB10F0000
00000FDC9D940000
00008E6804C03300
0000000000000000
000172E0FDD54700
0074EC491668F722
03EB6C000000C77A
1EFFC5B0B0B0E69A
1EFF714C4C4C4C31
03ED640000000000
0077EA4C1429753C
000170DDFEEFB527
ENDCHAR
STARTCHAR edieresis
ENCODING -1
SWIDTH 602 0
DWIDTH 8 0
BBX 8 12 0 0
BITMAP
00001513021C0A00
0000B8AC0CFF5800
0000403C05581F00
0000000000000000
000172E0FDD54700
0074EC491668F722
03EB6C000000C77A
1EFFC5B0B0B0E69A
1EFF714C4C4C4C31
03ED640000000000
0077EA4C1429753C
000170DDFEEFB527
ENDCHAR
STARTCHAR igrave
ENCODING -1
SWIDTH 602 0
DWIDTH 8 0
BBX 7 12 1 0
BITMAP
02926000000000
0028E72C000000
000047C8070000
00000000000000
40FFFFF8000000
01044BF8000000
000048F8000000
000048F8000000
000048F8000000
000048F8000000
04044BF9040402
C8FFFFFFFFFF78
ENDCHAR
STARTCHAR iacute
ENCODING -1
SWIDTH 602 0
DWIDTH 8 0
BBX 7 12 1 0
BITMAP
00000015B22A00
000001B3820000
000065AC020000
00000000000000
40FFFFF8000000
01044BF8000000
000048F8000000
000048F8000000
000048F8000000
000048F8000000
04044BF9040402
C8FFFFFFFFFF78
ENDCHAR
STARTCHAR icircumflex
ENCODING -1
SWIDTH 602 0
DWIDTH 8 0
BBX 7 12 1 0
BITMAP
00005EA8060000
001BDEA67C0000
00A6510ACB2200
00000000000000
40FFFFF8000000
01044BF8000000
000048F8000000
000048F8000000
000048F8000000
000048F8000000
04044BF9040402
C8FFFFFFFFFF78
ENDCHAR
STARTCHAR idieresis
ENCODING -1
SWIDTH 602 0
DWIDTH 8 0
BBX 7 12 1 0
BITMAP
001710041C0700
00D09024FF3C00
0048320D581500
00000000000000
40FFFFF8000000
01044BF8000000
000048F8000000
000048F8000000
000048F8000000
000048F8000000
04044BF9040402
C8FFFFFFFFFF78
ENDCHAR
STARTCHAR eth
ENCODING -1
SWIDTH 602 0
DWIDTH 8 0
BBX 8 12 0 0
BITMAP
00001D1400000000
000069EE44785C00
001272ECFF5E0600
001C530CB8BD0300
00016DD0ECFF6F00
0066F6613092EB08
00D389000013FE4A
02FD54000000E177
01FD52000000DF7B
00D882000012FC55
0075F04927ACE60B
00048AEDFCC52F00
ENDCHAR
STARTCHAR ntilde
ENCODING -1
SWIDTH 602 0
DWIDTH 8 0
BBX 7 12 1 0
BITMAP
001E53042B2B00
00CEADAFAC5300
02880065820500
00000000000000
A4A8AAF2EB5A00
A4F842017BF107
A4B800001FFF28
A49D000015FF30
A49C000014FF30
A49C000014FF30
A49C000014FF30
A49C000014FF30
ENDCHAR
STARTCHAR ograve
ENCODING -1
SWIDTH 602 0
DWIDTH 8 0
BBX 8 12 0 0
BITMAP
0002926000000000
000028E72C000000
00000047C8070000
0000000000000000
00058FEDFBC53000
0084E83B1BA1E80C
00E67800000FFC55
0BFF4E000000DF7A
09FF4E000000DF7A
00E47900000FFC55
0082E93B1BA2E80C
000690EEFCC73100
ENDCHAR
STARTCHAR oacute
ENCODING -1
SWIDTH 602 0
DWIDTH 8 0
BBX 8 12 0 0
BITMAP
0000000015B22A00
00000001B3820000
00000065AC020000
0000000000000000
00058FEDFBC53000
0084E83B1BA1E80C
00E67800000FFC55
0BFF4E000000DF7A
09FF4E000000DF7A
00E47900000FFC55
0082E93B1BA2E80C
000690EEFCC73100
ENDCHAR
STARTCHAR ocircumflex
ENCODING -1
SWIDTH 602 0
DWIDTH 8 0
BBX 8 12 0 0
BITMAP
0000005EA8060000
00001BDEA67C0000
0000A6510ACB2200
0000000000000000
00058FEDFBC53000
0084E83B1BA1E80C
00E67800000FFC55
0BFF4E000000DF7A
09FF4E000000DF7A
00E47900000FFC55
0082E93B1BA2E80C
000690EEFCC73100
ENDCHAR
STARTCHAR otilde
ENCODING -1
SWIDTH 602 0
DWIDTH 8 0
BBX 8 12 0 0
BITMAP
00001E53042B2B00
0000CEADAFAC5300
0002880065820500
0000000000000000
00058FEDFBC53000
0084E83B1BA1E80C
00E67800000FFC55
0BFF4E000000DF7A
09FF4E000000DF7A
00E47900000FFC55
0082E93B1BA2E80C
000690EEFCC73100
ENDCHAR
STARTCHAR odieresis
ENCODING -1
SWIDTH 602 0
DWIDTH 8 0
BBX 8 12 0 0
BITMAP
00001710041C0700
0000D09024FF3C00
000048320D581500
0000000000000000
00058FEDFBC53000
0084E83B1BA1E80C
00E67800000FFC55
0BFF4E000000DF7A
09FF4E000000DF7A
00E47900000FFC55
0082E93B1BA2E80C
000690EEFCC73100
ENDCHAR
STARTCHAR divide
ENCODING -1
SWIDTH 602 0
DWIDTH 8 0
BBX 8 8 0 0
BITMAP
000000A0FF0C0000
0000007BC40A0000
0814141414141411
64FFFFFFFFFFFFD4
0F2424242424241E
00000071B4090000
000000A0FF0C0000
000000080C010000
ENDCHAR
STARTCHAR oslash
ENCODING -1
SWIDTH 602 0
DWIDTH 8 0
BBX 9 10 0 -1
BITMAP
000000000000013C00
00048CECFBC68BAA01
007CE93B1BB2FD1400
00DE770026D3FB5100
04FF4C10CE33DF7600
05FF53B85600E07600
00E3E2800010FC5100
00ACF93E1FA5E60B00
4DC28FF0FCC52F0000
2B1600000000000000
ENDCHAR
STARTCHAR ugrave
ENCODING -1
SWIDTH 602 0
DWIDTH 8 0
BBX 7 12 1 0
BITMAP
02926000000000
0028E72C000000
000047C8070000
00000000000000
AC9800001CFF28
AC9800001CFF28
AC9800001CFF28
AC9800001CFF28
AC9800001EFF28
A4A0000039FF28
72E5180BAFFF28
0DB7F9DD6BFF28
ENDCHAR
STARTCHAR uacute
ENCODING -1
SWIDTH 602 0
DWIDTH 8 0
BBX 7 12 1 0
BITMAP
00000015B22A00
000001B3820000
000065AC020000
00000000000000
AC9800001CFF28
AC9800001CFF28
AC9800001CFF28
AC9800001CFF28
AC9800001EFF28
A4A0000039FF28
72E5180BAFFF28
0DB7F9DD6BFF28
ENDCHAR
STARTCHAR ucircumflex
ENCODING -1
SWIDTH 602 0
DWIDTH 8 0
BBX 7 12 1 0
BITMAP
00005EA8060000
001BDEA67C0000
00A6510ACB2200
00000000000000
AC9800001CFF28
AC9800001CFF28
AC9800001CFF28
AC9800001CFF28
AC9800001EFF28
A4A0000039FF28
72E5180BAFFF28
0DB7F9DD6BFF28
ENDCHAR
STARTCHAR udieresis
ENCODING -1
SWIDTH 602 0
DWIDTH 8 0
BBX 7 12 1 0
BITMAP
001710041C0700
00D09024FF3C00
0048320D581500
00000000000000
AC9800001CFF28
AC9800001CFF28
AC9800001CFF28
AC9800001CFF28
AC9800001EFF28
A4A0000039FF28
72E5180BAFFF28
0DB7F9DD6BFF28
ENDCHAR
STARTCHAR yacute
ENCODING -1
SWIDTH 602 0
DWIDTH 8 0
BBX 8 16 0 -4
BITMAP
0000000015B22A00
00000001B3820000
00000065AC020000
0000000000000000
1CFE3A000000A2B1
00B99700000BF452
0059ED060059ED07
0009F15000B49400
000099AC15FC3500
00003AF97BD60100
000001DAFA790000
0000007BFF1F0000
00000090BF000000
000C32F35A000000
00BCFFA503000000
0009080000000000
ENDCHAR
STARTCHAR thorn
ENCODING -1
SWIDTH 602 0
DWIDTH 8 0
BBX 7 16 1 -4
BITMAP
03030000000000
B0940000000000
B0940000000000
B0940000000000
B0A7BBFCD74000
B0FE661783F113
B0C8000003EA61
B09E000000C386
B09E000000C387
B0C8000003E964
B0FE661682F315
B0A5BEFDDA4400
B0920000000000
B0930000000000
B0930000000000
09070000000000
ENDCHAR
STARTCHAR ydieresis
ENCODING -1
SWIDTH 602 0
DWIDTH 8 0
BBX 8 16 0 -4
BITMAP
00001710041C0700
0000D09024FF3C00
000048320D581500
0000000000000000
1CFE3A000000A2B1
00B99700000BF452
0059ED060059ED07
0009F15000B49400
000099AC15FC3500
00003AF97BD60100
000001DAFA790000
0000007BFF1F0000
00000090BF000000
000C32F35A000000
00BCFFA503000000
0009080000000000
ENDCHAR
STARTCHAR Cacute
ENCODING -1
SWIDTH 602 0
DWIDTH 8 0
BBX 8 14 0 0
BITMAP
00000000025D1F00
000000006FB80400
0000000477100000
0000035CA0A67813
0003B3EA897FCA58
0065F92700000110
00C3AC0000000000
00F37C0000000000
03FF6E0000000000
01FB750000000000
00D9980000000000
008FE60A00000000
0019EBB6372D794A
000027B4F5FBCC2E
ENDCHAR
STARTCHAR cacute
ENCODING -1
SWIDTH 602 0
DWIDTH 8 0
BBX 7 12 1 0
BITMAP
00000000589904
00000024E82F00
000004C1510000
00000000000000
0024B1F3F9C222
10E6AA26186236
6CEC0800000000
9AB80000000000
98B90000000000
6AED0A00000000
10E4AE291B6232
0025B3F5FBC320
ENDCHAR
STARTCHAR Ccaron
ENCODING -1
SWIDTH 602 0
DWIDTH 8 0
BBX 8 14 0 0
BITMAP
00000D5A01184F00
0000009685CA3D00
000000087C540000
0000035CA0A67813
0003B3EA897FCA58
0065F92700000110
00C3AC0000000000
00F37C0000000000
03FF6E0000000000
01FB750000000000
00D9980000000000
008FE60A00000000
0019EBB6372D794A
000027B4F5FBCC2E
ENDCHAR
STARTCHAR ccaron
ENCODING -1
SWIDTH 602 0
DWIDTH 8 0
BBX 7 12 1 0
BITMAP
001B9902249101
00009978C84100
000011E39D0000
00000000000000
0024B1F3F9C222
10E6AA26186236
6CEC0800000000
9AB80000000000
98B90000000000
6AED0A00000000
10E4AE291B6232
0025B3F5FBC320
ENDCHAR
STARTCHAR dcroat
ENCODING -1
SWIDTH 602 0
DWIDTH 8 0
BBX 9 11 0 0
BITMAP
000000000027F41B00
00000034DCE2FFE05A
000000000028FF1C00
000EA9F8E77AFF1C00
009CD1282DD9FF1C00
06F653000061FF1C00
1FFF29000037FF1C00
1DFF29000037FF1C00
04F453000062FF1C00
0098D0272DD9FF1C00
000EAAF9E670D01700
ENDCHAR
STARTCHAR Gbreve
ENCODING -1
SWIDTH 602 0
DWIDTH 8 0
BBX 8 14 0 0
BITMAP
00005B02003B2100
00009CC9ADE11700
0000023C4B120000
00000F74A69D5402
0019DDD37E8AE534
00A5D70900000E14
0AF9700000000000
33FF400000000000
43FF320020808046
3CFF380029A4EB8C
18FF59000000C48C
00CCAB000000C48C
0043FD873041E38C
000049CCFBF3A91C
ENDCHAR
STARTCHAR gbreve
ENCODING -1
SWIDTH 602 0
DWIDTH 8 0
BBX 8 16 0 -4
BITMAP
00006D01004A2800
0000A7A181E51900
00000D7082300000
0000000000000000
000CA7F1E085FF24
0097CE1009BAFF24
04F45C000047FF24
1CFF38000026FF24
1AFF3B00002CFF24
02EF69000057FF24
008FE1342ACDFF24
000AA5F9E56FFF21
000000000039FE0B
00243F040BABBC00
0039F1FBFDC71F00
0000021712000000
ENDCHAR
STARTCHAR Idotaccent
ENCODING -1
SWIDTH 602 0
DWIDTH 8 0
BBX 7 14 1 0
BITMAP
0000315D000000
00007CEC000000
00000A13000000
6CACACACACAC09
588CC5F68C8C07
00007CE8000000
00007CE8000000
00007CE8000000
00007CE8000000
00007CE8000000
00007CE8000000
00007CE8000000
233899EE383803
A0FFFFFFFFFF0C
ENDCHAR
STARTCHAR dotlessi
ENCODING -1
SWIDTH 602 0
DWIDTH 8 0
BBX 7 8 1 0
BITMAP
40FFFFF8000000
01044BF8000000
000048F8000000
000048F8000000
000048F8000000
000048F8000000
04044BF9040402
C8FFFFFFFFFF78
ENDCHAR
STARTCHAR Lslash
ENCODING -1
SWIDTH 602 0
DWIDTH 8 0
BBX 9 11 -1 0
BITMAP
00005C940000000000
000088DC0000000000
000088DC0000000000
000088DC02743F0000
000088E8BAB8160000
000092FC7402000000
0286FDDC0000000000
006896DC0000000000
000088DC0000000000
000088E4383838382C
000088FFFFFFFFFFC8
ENDCHAR
STARTCHAR lslash
ENCODING -1
SWIDTH 602 0
DWIDTH 8 0
BBX 8 12 0 0
BITMAP
0030343414000000
00C1D4FC60000000
000000E460000000
000000E4600B5D00
000000E48FD79202
000002E8ED4E0000
0018BAFF63000000
32E477E660000000
103600E460000000
000000DF68000000
000000ADC3231C02
00000023CDFFFF10
ENDCHAR
STARTCHAR OE
ENCODING -1
SWIDTH 602 0
DWIDTH 8 0
BBX 9 11 0 0
BITMAP
00035E9EACACACAC2B
00A0F49ECCE98C8C23
20FF4F0090CC000000
5AFD070090CC000000
76E9000090DC4C4C04
7FE1000090FCECEC0C
79E4000090CC000000
64F7010090CC000000
34FF2B0090CC000000
02D3C849A9D7343411
0022B4F5FFFFFFFF50
ENDCHAR
STARTCHAR oe
ENCODING -1
SWIDTH 602 0
DWIDTH 8 0
BBX 9 9 0 -1
BITMAP
12BFFBCC6FEBF37000
85B722AEFF5047F80A
C4620053F40100E62F
DC4F003EF78888F03E
DE4D003AF78C8B8A23
CF580044F000000000
A4850071FF20000D09
3CF6BBF2C8E1ADE616
002C6532034B692E00
ENDCHAR
STARTCHAR Scedilla
ENCODING -1
SWIDTH 602 0
DWIDTH 8 0
BBX 8 14 0 -3
BITMAP
00003F97A98C4500
0067FA9F7CA3E100
01E7770000001200
02FF5A0000000000
00C6E2621D000000
001FB5FEFFD34C00
000000114FB4FD32
000000000003E77E
000300000001E27D
00C06D323395FD30
0081D5FBFACE4F00
00000001B3300000
0000111A94800000
000032C9BD2A0000
ENDCHAR
STARTCHAR scedilla
ENCODING -1
SWIDTH 602 0
DWIDTH 8 0
BBX 7 11 1 -3
BITMAP
038CEAFEE47200
5AF13810325600
76DE0400000000
24ECDF9D640A00
000F5793F0BE00
000000004DFF0B
525518179ADE01
51D2FAF9C22F00
000001B3300000
00111A94800000
0032C9BD2A0000
ENDCHAR
STARTCHAR Scaron
ENCODING -1
SWIDTH 602 0
DWIDTH 8 0
BBX 8 14 0 0
BITMAP
00004C1B01570F00
000038CD819D0000
000000517D0A0000
00003F97A98C4500
0067FA9F7CA3E100
01E7770000001200
02FF5A0000000000
00C6E2621D000000
001FB5FEFFD34C00
000000114FB4FD32
000000000003E77E
000300000001E27D
00C06D323395FD30
0081D5FBFACE4F00
ENDCHAR
STARTCHAR scaron
ENCODING -1
SWIDTH 602 0
DWIDTH 8 0
BBX 7 12 1 0
BITMAP
00892C01932200
0038CF70A40000
000092E8160000
00000000000000
038CEAFEE47200
5AF13810325600
76DE0400000000
24ECDF9D640A00
000F5793F0BE00
000000004DFF0B
525518179ADE01
51D2FAF9C22F00
ENDCHAR
STARTCHAR Ydieresis
ENCODING -1
SWIDTH 602 0
DWIDTH 8 0
BBX 9 14 0 0
BITMAP
00004E360E60170000
0000D09024FF3C0000
0000110C0314050000
62990200000055A307
22F957000009E58500
008CDB050075EA0E00
0011ED670FED680000
00006FE68BD7040000
000006DBFF4C000000
0000007FEB01000000
0000007CE800000000
0000007CE800000000
0000007CE800000000
0000007CE800000000
ENDCHAR
STARTCHAR Zcaron
ENCODING -1
SWIDTH 602 0
DWIDTH 8 0
BBX 7 14 1 0
BITMAP
00643405830F00
0020D8AC790000
00002D4D020000
87ACACACACAC92
6E8C8C8C8DF3BD
0000000058FB2E
00000010E78500
00000096DA0900
000037FD400000
0004D09B000000
0073E811000000
1EF45500000000
B0D13938383838
F0FFFFFFFFFFFC
ENDCHAR
STARTCHAR zcaron
ENCODING -1
SWIDTH 602 0
DWIDTH 8 0
BBX 7 12 1 0
BITMAP
00892C01932200
0038CF70A40000
000092E8160000
00000000000000
74FFFFFFFFFF1C
060C0C0C9BD608
00000056F42A00
000027F35A0000
000BD395000000
01A1CB07000000
61F33010101002
9CFFFFFFFFFF1C
ENDCHAR
STARTCHAR florin
ENCODING -1
SWIDTH 602 0
DWIDTH 8 0
BBX 9 16 0 -4
BITMAP
000000000000150F00
0000000004AAFAF330
0000000063E416060D
00000000A992000000
00000000CE6B000000
00000F10F154100500
0000DAF7FFF9F84600
00000043F602000000
0000006DD100000000
00000096AA00000000
000000C08300000000
000000E95C00000000
00001DFF2800000000
2D069BD10100000000
DBFFDB310000000000
010A01000000000000
ENDCHAR
STARTCHAR circumflex
ENCODING -1
SWIDTH 602 0
DWIDTH 8 0
BBX 5 3 2 9
BITMAP
005EA80600
1BDEA67C00
A6510ACB22
ENDCHAR
STARTCHAR caron
ENCODING -1
SWIDTH 602 0
DWIDTH 8 0
BBX 5 3 2 9
BITMAP
892C019322
38CF70A400
0092E81600
ENDCHAR
STARTCHAR breve
ENCODING -1
SWIDTH 602 0
DWIDTH 8 0
BBX 5 3 2 9
BITMAP
6D01004A28
A6A181E519
0D70823000
ENDCHAR
STARTCHAR dotaccent
ENCODING -1
SWIDTH 602 0
DWIDTH 8 0
BBX 2 3 3 9
BITMAP
0E1A
7CEC
2D55
ENDCHAR
STARTCHAR ring
ENCODING -1
SWIDTH 602 0
DWIDTH 8 0
BBX 5 5 2 8
BITMAP
12AFD15200
8A721BDA08
955305D70C
24D7E17A00
0002060000
ENDCHAR
STARTCHAR ogonek
ENCODING -1
SWIDTH 602 0
DWIDTH 8 0
BBX 4 3 2 -3
BITMAP
01BB2600
16E91D16
0193CA4D
ENDCHAR
STARTCHAR tilde
ENCODING -1
SWIDTH 602 0
DWIDTH 8 0
BBX 6 3 1 9
BITMAP
001E53042B2B
00CEADAFAC53
028800658205
ENDCHAR
STARTCHAR hungarumlaut
ENCODING -1
SWIDTH 602 0
DWIDTH 8 0
BBX 6 3 2 9
BITMAP
0060702EA705
09E125B26400
668B33BE0200
ENDCHAR
STARTCHAR Omega
ENCODING -1
SWIDTH 602 0
DWIDTH 8 0
BBX 8 11 0 0
BITMAP
00000D57652A0000
0028E5E9D4FE7900
01CBB9080059FF36
2DFF34000000C997
5CFD0400000092C5
67F60000000087D2
55FF080000009AC0
1FFF3A000000CD88
00B69F00002FF923
1E5CFA5914D4A638
80FFFFAC3CFFFFEC
ENDCHAR
STARTCHAR pi
ENCODING -1
SWIDTH 602 0
DWIDTH 8 0
BBX 9 9 0 -1
BITMAP
66E1E2E3E4E5E6CB00
1692CC303071F02300
0078C0000050EC0000
0078C0000050EC0000
0078C0000050EC0000
0078C0000050EC0000
0078C000004DF40300
0078C0000023FDE30B
000000000000253402
ENDCHAR
STARTCHAR endash
ENCODING -1
SWIDTH 602 0
DWIDTH 8 0
BBX 9 2 0 3
BITMAP
88888888888888883A
7C7C7C7C7C7C7C7C35
ENDCHAR
STARTCHAR emdash
ENCODING -1
SWIDTH 602 0
DWIDTH 8 0
BBX 9 2 0 3
BITMAP
88888888888888883A
7C7C7C7C7C7C7C7C35
ENDCHAR
STARTCHAR quoteleft
ENCODING -1
SWIDTH 602 0
DWIDTH 8 0
BBX 3 6 3 6
BITMAP
001112
01CE69
4BFF2A
BEEF01
D4E400
141600
ENDCHAR
STARTCHAR quoteright
ENCODING -1
SWIDTH 602 0
DWIDTH 8 0
BBX 3 6 3 6
BITMAP
062012
2CFF90
3AFF75
74F00F
B18200
140600
ENDCHAR
STARTCHAR quotesinglbase
ENCODING -1
SWIDTH 602 0
DWIDTH 8 0
BBX 4 6 2 -3
BITMAP
00192C07
0090FF28
00A0F813
00DD9200
1EF91C00
030A0000
ENDCHAR
STARTCHAR quotedblleft
ENCODING -1
SWIDTH 602 0
DWIDTH 8 0
BBX 6 6 1 6
BITMAP
00081B00031F
0084B1005FD5
12F27204DA96
79FF3851FF5C
90FF2C68FF50
0E18050A1808
ENDCHAR
STARTCHAR quotedblright
ENCODING -1
SWIDTH 602 0
DWIDTH 8 0
BBX 6 6 1 6
BITMAP
001D1B00181F
00E4D400C0F8
02F1BA00CEDD
2DFF450DFD67
6CC90148E407
0E0D000A1000
ENDCHAR
STARTCHAR quotedblbase
ENCODING -1
SWIDTH 602 0
DWIDTH 8 0
BBX 6 6 1 -3
BITMAP
00282500212B
00E4D400C0F8
02F2B700D0DB
30FF400FFD62
6FC4014BE005
070700060800
ENDCHAR
STARTCHAR dagger
ENCODING -1
SWIDTH 602 0
DWIDTH 8 0
BBX 7 13 1 -2
BITMAP
0000448C000000
000064D0000000
000064D0000000
9AACCDF1ACAC39
616CA6E56C6C24
000064D0000000
000064D0000000
000064D0000000
000064D0000000
000064D0000000
000064D0000000
000064D0000000
00002B58000000
ENDCHAR
STARTCHAR daggerdbl
ENCODING -1
SWIDTH 602 0
DWIDTH 8 0
BBX 7 13 1 -2
BITMAP
0000448C000000
000064D0000000
000064D0000000
9AACCDF1ACAC39
616CA6E56C6C24
000064D0000000
000064D0000000
000064D0000000
9DB0D0F1B0B03A
616CA6E56C6C24
000064D0000000
000064D0000000
00002B58000000
ENDCHAR
STARTCHAR bullet
ENCODING -1
SWIDTH 602 0
DWIDTH 8 0
BBX 5 5 2 3
BITMAP
03627E1F00
81FFFFE309
CAFFFFFF33
96FFFFEE0E
0B88A13300
ENDCHAR
STARTCHAR ellipsis
ENCODING -1
SWIDTH 602 0
DWIDTH 8 0
BBX 8 3 0 0
BITMAP
16300D2030032A2A
74FF44A8FF10DCE0
74FF44A8FF10DCE0
ENDCHAR
STARTCHAR perthousand
ENCODING -1
SWIDTH 602 0
DWIDTH 8 0
BBX 10 11 -1 0
BITMAP
00012F25000000000000
0090C3D0650000000000
04DC030CCC0000000000
01D8263DB90006575500
0041CCC04282C5761400
000143ABB14B03000000
00818F310000051E0200
0030DBD78E19D6C8C007
00A84302C5976D00934E
009C4D05CC867F01A842
0024D1E1770CB2E09401
ENDCHAR
STARTCHAR guilsinglleft
ENCODING -1
SWIDTH 602 0
DWIDTH 8 0
BBX 4 7 2 1
BITMAP
0000012E
0002948E
05A5C10E
8ECC0900
32E76200
0026E060
00001C6B
ENDCHAR
STARTCHAR guilsinglright
ENCODING -1
SWIDTH 602 0
DWIDTH 8 0
BBX 5 7 2 1
BITMAP
111E000000
1BE0260000
0061E63100
000064F10D
001AD48A01
0EDD790100
1E68000000
ENDCHAR
STARTCHAR Euro
ENCODING -1
SWIDTH 602 0
DWIDTH 8 0
BBX 8 11 0 0
BITMAP
000000459BA6720C
00006CF7907CCE3C
0015F75E0000030D
0065F40500000000
6DE1F5B8B8AC0400
03A1C20808070000
69E4EDB4B20E0000
0980E8100F000000
0034FF2E00000000
0001B5D239267C32
00000E9EF2FBC81D
ENDCHAR
STARTCHAR trademark
ENCODING -1
SWIDTH 602 0
DWIDTH 8 0
BBX 8 5 0 6
BITMAP
ACACAC4C9B026F79
00C80070C068B7B4
00C800705EDA45B4
00C80070581514B4
005E00352A000A55
ENDCHAR
STARTCHAR partialdiff
ENCODING -1
SWIDTH 602 0
DWIDTH 8 0
BBX 7 10 1 0
BITMAP
0001619F610100
001EED647F6F00
0000010012E501
000000000BFF1C
006BBB7051FF2A
41FB20009CFF1C
98C2000094F202
A7A30000ADA400
6BB2000EE62800
059A7B9E470000
ENDCHAR
STARTCHAR Delta
ENCODING -1
SWIDTH 602 0
DWIDTH 8 0
BBX 10 11 -1 0
BITMAP
000000001A2E00000000
00000000BEFF29000000
0000001AFED583000000
00000070CF60DC010000
000000CA7911FA360000
000024FF2400B48F0000
00007CCD00005EE60300
0001D57600000FF94200
002EFF21000000B19C00
0087DF3C3C3C3C8AEF07
01DFFFFFFFFFFFFFFF4F
ENDCHAR
STARTCHAR product
ENCODING -1
SWIDTH 602 0
DWIDTH 8 0
BBX 7 15 1 -4
BITMAP
A4ACACACACAC44
F456444444C364
F418000000AC64
F418000000AC64
F418000000AC64
F418000000AC64
F418000000AC64
F418000000AC64
F418000000AC64
F418000000AC64
F418000000AC64
F418000000AC64
F418000000AC64
F418000000AC64
4D080000003620
ENDCHAR
STARTCHAR summation
ENCODING -1
SWIDTH 602 0
DWIDTH 8 0
BBX 8 15 0 -4
BITMAP
03ACACACACACAC31
01B8A65454545418
0023E31400000000
00007B9E00000000
000007D63E000000
00000040D5070000
00000000A07C0000
0000000083990000
0000001EE8170000
000000A675000000
000039DB07000000
0002C95000000000
005CBE0100000000
02E4CBACACACAC49
0250505050505022
ENDCHAR
STARTCHAR minus
ENCODING -1
SWIDTH 602 0
DWIDTH 8 0
BBX 8 3 0 3
BITMAP
153434343434342C
64FFFFFFFFFFFFD4
0204040404040404
ENDCHAR
STARTCHAR fraction
ENCODING -1
SWIDTH 602 0
DWIDTH 8 0
BBX 8 13 0 -2
BITMAP
00000000000FAB27
000000000072D902
0000000004E16800
0000000057EC0A00
00000001C9830000
0000003BFA190000
000000AE9F000000
000023FD2D000000
000092BA00000000
0011F44800000000
0076D60100000000
05E4640000000000
1560080000000000
ENDCHAR
STARTCHAR periodcentered
ENCODING -1
SWIDTH 602 0
DWIDTH 8 0
BBX 3 3 3 4
BITMAP
203003
A8FF10
A8FF10
ENDCHAR
STARTCHAR radical
ENCODING -1
SWIDTH 602 0
DWIDTH 8 0
BBX 9 14 0 -1
BITMAP
000000000000002204
0000000000001FF214
0000000000006C8E00
000000000000B94100
00000000000EE90500
000000000054A70000
2587680000A25A0000
4F92C60004E8110000
0002E6133DC0000000
0000A1598A73000000
000058A2D826000000
000012F2D900000000
000000C68C00000000
0000002B1A00000000
ENDCHAR
STARTCHAR infinity
ENCODING -1
SWIDTH 602 0
DWIDTH 8 0
BBX 9 7 0 1
BITMAP
00102A0100111F0000
29E9E19C36EAE26F00
936604CADF3D09DB06
AE2F006FDA0000C01D
8C5E07CEE63E0CE208
20E2E69835EAE78000
000F2A010015250000
ENDCHAR
STARTCHAR integral
ENCODING -1
SWIDTH 602 0
DWIDTH 8 0
BBX 8 15 0 -3
BITMAP
0000000000030B00
000000002ECAFC4B
00000000C047C145
00000013FF0F0000
00000041F8010000
00000060EC000000
00000074E6000000
0000007EE2000000
00000083DD000000
00000089CF000000
00000093B6000000
000000A492000000
00280BC157000000
0BFD9AD70A000000
01799B2800000000
ENDCHAR
STARTCHAR approxequal
ENCODING -1
SWIDTH 602 0
DWIDTH 8 0
BBX 8 5 0 2
BITMAP
1092D9C568121E79
539F5A7ADAFFFF92
060A361C02271909
31EBF7FFBE6A77BB
3D3F01177AC7B842
ENDCHAR
STARTCHAR notequal
ENCODING -1
SWIDTH 602 0
DWIDTH 8 0
BBX 8 9 0 0
BITMAP
0000000000008A3A
000000000058EF20
42A8A8A8A8F3DA8C
39909098FEBB9078
00000096D0090000
4BC0C4FFD8C0C09F
319AFF987C7C7C67
04C5A40100000000
02760C0000000000
ENDCHAR
STARTCHAR lessequal
ENCODING -1
SWIDTH 602 0
DWIDTH 8 0
BBX 8 8 0 0
BITMAP
00000000000E5987
0000105CB1F8EB89
32B4FAD7893C0300
5AFFDF7527000000
001B6DC1FED98A37
00000000186ABECD
173838383838383A
68FFFFFFFFFFFFD0
ENDCHAR
STARTCHAR greaterequal
ENCODING -1
SWIDTH 602 0
DWIDTH 8 0
BBX 8 8 0 0
BITMAP
487D290000000000
3CCEFFD4802C0100
00001C68B6F8D873
0000000D53ACFFC4
1469B7F9E3903C02
64E18D3902000000
213938383838382F
64FFFFFFFFFFFFD4
ENDCHAR
STARTCHAR lozenge
ENCODING -1
SWIDTH 602 0
DWIDTH 8 0
BBX 8 16 0 -4
BITMAP
0000000749000000
00000062CF010000
000001C090430000
000049811AB00000
0000B31600A02A00
00309900002F9B00
00A128000000B317
15B4000000004E7C
03C1050000007C4C
006E5A000007C002
000DBC0100606800
0000893F01BD0A00
00001DAD43840000
000000A3C8190000
00000033A1000000
0000000015000000
ENDCHAR
STARTCHAR fi
ENCODING -1
SWIDTH 602 0
DWIDTH 8 0
BBX 8 12 0 0
BITMAP
00000015200A1C0C
0004B6FFF94CE060
0045F81A00007E36
0060E50000000000
C0FFFFFFFFFFFF64
0363E5040404E164
0060E4000000E064
0060E4000000E064
0060E4000000E064
0060E4000000E064
0060E4000000E064
0060E4000000E064
ENDCHAR
STARTCHAR fl
ENCODING -1
SWIDTH 602 0
DWIDTH 8 0
BBX 8 12 0 0
BITMAP
000000152020200C
0004B6FFFDFCFF60
0045F91D0000E460
0060E5000000E460
C0FFFFFFE400E460
0363E5040400E460
0060E4000000E460
0060E4000000E460
0060E4000000E460
0060E4000000E460
0060E4000000E460
0060E4000000E460
ENDCHAR
STARTCHAR .notdef
ENCODING -1
SWIDTH 602 0
DWIDTH 8 0
BBX 8 14 0 -3
BITMAP
185454545454543D
48BE7C7C7C7C85B8
48800000000010B8
48800000000010B8
48800000000010B8
48800000000010B8
48800000000010B8
48800000000010B8
48800000000010B8
48800000000010B8
48800000000010B8
48800000000010B8
489C3838383845B8
2B9898989898986E
ENDCHAR
STARTCHAR c6459
ENCODING -1
SWIDTH 602 0
DWIDTH 8 0
BBX 5 2 2 9
BITMAP
8C6119AC29
A3711DC82F
ENDCHAR
STARTCHAR c6460
ENCODING -1
SWIDTH 602 0
DWIDTH 8 0
BBX 3 2 3 9
BITMAP
01AD71
65AC02
ENDCHAR
STARTCHAR c6461
ENCODING -1
SWIDTH 602 0
DWIDTH 8 0
BBX 5 2 2 9
BITMAP
59A23F5547
C542B4C81D
ENDCHAR
STARTCHAR c6468
ENCODING -1
SWIDTH 602 0
DWIDTH 8 0
BBX 4 2 2 9
BITMAP
1DD62B00
0046C707
ENDCHAR
STARTCHAR c6470
ENCODING -1
SWIDTH 602 0
DWIDTH 8 0
BBX 5 2 2 9
BITMAP
04BAD83600
7F7E26C70F
ENDCHAR
STARTCHAR c6472
ENCODING -1
SWIDTH 602 0
DWIDTH 8 0
BBX 5 2 2 9
BITMAP
7E7722C30F
06C2DB3C00
ENDCHAR
STARTCHAR c6477
ENCODING -1
SWIDTH 602 0
DWIDTH 8 0
BBX 8 4 0 3
BITMAP
0000000000000A18
0000063B7DBDC756
60B6CA9452120000
3819000000000000
ENDCHAR
STARTCHAR c6478
ENCODING -1
SWIDTH 602 0
DWIDTH 8 0
BBX 6 7 1 4
BITMAP
0000049A4900
000076CF6C00
0027A3846C00
02B419846C00
2AEACCE7E22D
000000846C00
0000002A2200
ENDCHAR
STARTCHAR c6475
ENCODING -1
SWIDTH 602 0
DWIDTH 8 0
BBX 5 2 2 9
BITMAP
C15032B938
36B4C37401
ENDCHAR
STARTCHAR c6476
ENCODING -1
SWIDTH 602 0
DWIDTH 8 0
BBX 2 2 3 9
BITMAP
549F
63BD
ENDCHAR
ENDFONT
